<?xml version="1.0" encoding="UTF-8"?>
<svg version="1.1" xmlns="http://www.w3.org/2000/svg" width="223" height="447">
<path d="M0 0 C0.80953125 0.56332031 1.6190625 1.12664062 2.453125 1.70703125 C6.51493181 4.62556726 6.51493181 4.62556726 8 6 C8 6.66 8 7.32 8 8 C8.57492188 8.24492187 9.14984375 8.48984375 9.7421875 8.7421875 C24.56720254 17.00110591 33.92492939 39.84997398 39.05859375 55.15625 C46.17327744 81.57249184 41.24326198 110.43297337 28 134 C25.25901217 138.24729646 22.26045289 142.1407995 19 146 C18.21753906 146.94488281 17.43507812 147.88976562 16.62890625 148.86328125 C2.40628238 165.31601254 -18.59531115 178.24152713 -40.5 180.8125 C-41.655 180.874375 -42.81 180.93625 -44 181 C-44 177 -44 177 -42.6796875 175.359375 C-41.78636719 174.56273437 -41.78636719 174.56273437 -40.875 173.75 C-37.51224908 170.60552095 -34.8789013 167.28268764 -32.26171875 163.50390625 C-31.84535156 163.00761719 -31.42898437 162.51132812 -31 162 C-30.34 162 -29.68 162 -29 162 C-28.73574219 161.40703125 -28.47148437 160.8140625 -28.19921875 160.203125 C-26.95629575 157.91970946 -25.69598354 156.52573277 -23.8125 154.75 C-19.06668688 150.14260643 -14.72563579 145.23866265 -10.6875 140 C-10.130625 139.34 -9.57375 138.68 -9 138 C-8.34 138 -7.68 138 -7 138 C-6.75636719 137.43410156 -6.51273438 136.86820313 -6.26171875 136.28515625 C-4.76771634 133.57930049 -2.94934052 131.66996505 -0.8125 129.4375 C13.10943034 114.17261818 17.78832225 97.15379379 17.3125 76.859375 C16.42269778 58.1290382 7.54999606 41.59891413 -5.52734375 28.4609375 C-22.3880518 13.70464865 -43.04901623 8.67924855 -65 10 C-84.23442665 12.46994154 -100.33785651 21.40500595 -113 36 C-121.23398526 46.99936145 -125.72392398 58.51502909 -128 72 C-128.16757813 72.85722656 -128.33515625 73.71445313 -128.5078125 74.59765625 C-131.07932402 91.85961121 -125.65493833 109.6853302 -116.0390625 123.8984375 C-113.81947795 126.73032124 -111.46115969 129.38040008 -109 132 C-108.4112207 132.63405762 -107.82244141 133.26811523 -107.21582031 133.92138672 C-103.81205009 137.58234955 -100.38602936 141.22121467 -96.94140625 144.84375 C-89.49402305 152.67896189 -82.21635689 160.67655588 -75.01953125 168.7421875 C-73.71806558 170.19721101 -72.4038051 171.64093975 -71.07421875 173.0703125 C-69.63939532 174.64696905 -68.30641616 176.31541074 -67 178 C-67.33 178.99 -67.66 179.98 -68 181 C-94.12920097 178.12974686 -116.48102648 163.17297944 -133.1796875 143.421875 C-146.7516218 125.78364132 -153.43390538 104.90474675 -153.3125 82.75 C-153.30686035 81.66025879 -153.3012207 80.57051758 -153.29541016 79.44775391 C-152.91284761 53.85394075 -143.41866019 31.53463909 -125.41357422 13.43701172 C-124.15275802 12.1552908 -122.93443626 10.83208365 -121.72265625 9.50390625 C-91.08783905 -23.41283402 -35.57386007 -25.20759193 0 0 Z " fill="#1F4D85" transform="translate(168,135)"/>
<path d="M0 0 C12.56539174 12.07741537 22.17089758 27.43597833 23.15625 45.23046875 C23.58228585 68.51974914 16.82412249 84.40304094 0.875 101.25 C-0.98744989 103.17234917 -2.85608307 105.08834398 -4.72900391 107.00048828 C-6.50429651 108.8418114 -6.50429651 108.8418114 -8.63671875 111.65234375 C-9.18972656 112.32394531 -9.74273437 112.99554688 -10.3125 113.6875 C-10.9725 113.6875 -11.6325 113.6875 -12.3125 113.6875 C-12.5803833 114.27756836 -12.8482666 114.86763672 -13.12426758 115.47558594 C-14.32423483 117.70934458 -15.57862013 119.25023425 -17.32421875 121.078125 C-17.91404541 121.70146729 -18.50387207 122.32480957 -19.11157227 122.96704102 C-19.73475342 123.61729248 -20.35793457 124.26754395 -21 124.9375 C-22.27430518 126.28433583 -23.5477525 127.63198387 -24.8203125 128.98046875 C-25.4277832 129.62290527 -26.03525391 130.2653418 -26.66113281 130.92724609 C-30.13553099 134.63073675 -33.54746676 138.41086292 -36.66015625 142.42578125 C-39.30925232 145.82018875 -41.29126369 147.25802397 -45.3125 148.6875 C-51.0468707 143.19714507 -56.25155656 137.49802836 -61.171875 131.265625 C-63.32483434 128.58198893 -63.32483434 128.58198893 -66.078125 125.984375 C-68.3125 123.6875 -68.3125 123.6875 -68.3125 121.6875 C-68.9725 121.6875 -69.6325 121.6875 -70.3125 121.6875 C-71.6171875 120.39453125 -71.6171875 120.39453125 -73.1875 118.5 C-75.52293911 115.73993559 -77.89748663 113.03847832 -80.37109375 110.40234375 C-81.17474365 109.54515747 -81.17474365 109.54515747 -81.99462891 108.6706543 C-83.06788433 107.52973781 -84.14430723 106.39179135 -85.22412109 105.25708008 C-87.78805359 102.51993125 -89.65255785 100.02297061 -91.3125 96.6875 C-92.7975 96.1925 -92.7975 96.1925 -94.3125 95.6875 C-96.05965274 93.63829713 -97.63450614 91.62646803 -99.1875 89.4375 C-99.63222656 88.81141846 -100.07695313 88.18533691 -100.53515625 87.5402832 C-104.58867058 81.62866049 -107.22105137 75.54635556 -109.3125 68.6875 C-109.67794922 67.59115234 -109.67794922 67.59115234 -110.05078125 66.47265625 C-114.78098406 49.70778779 -110.40020689 30.98724612 -102.42578125 16.01171875 C-92.92354123 1.06457224 -77.81627735 -10.57147379 -60.4375 -14.6875 C-59.06607271 -14.9181837 -57.69087682 -15.12782427 -56.3125 -15.3125 C-55.65894531 -15.43238281 -55.00539062 -15.55226562 -54.33203125 -15.67578125 C-34.94115644 -18.69537339 -14.79657815 -12.80560127 0 0 Z M-82.3125 17.6875 C-91.89648168 30.17514346 -95.52226633 43.4901368 -93.8125 59.125 C-91.2909994 72.95150658 -83.30023103 84.90568237 -71.9375 93.0625 C-59.86228629 100.54065867 -45.9349819 102.65809664 -32.125 99.5 C-19.16270936 95.7794998 -8.20970833 88.26322905 -0.8125 76.8125 C5.88547589 64.22902458 7.90667835 50.17214365 4.5625 36.21484375 C-1.002742 20.1402385 -11.48839239 10.9344553 -26.3125 3.6875 C-30.95242277 1.9645875 -35.3874476 1.06914613 -40.3125 0.6875 C-40.99054688 0.63335937 -41.66859375 0.57921875 -42.3671875 0.5234375 C-57.72076065 -0.09520464 -72.02117178 6.44291075 -82.3125 17.6875 Z " fill="#1A1E55" transform="translate(156.3125,166.3125)"/>
<path d="M0 0 C2.97 0.495 2.97 0.495 6 1 C6.495 2.98 6.495 2.98 7 5 C8.74991334 5.02715383 10.49994945 5.04646551 12.25 5.0625 C13.22453125 5.07410156 14.1990625 5.08570313 15.203125 5.09765625 C17.65758678 5.01195577 19.66168914 4.70706066 22 4 C22.54594753 22.06176419 12.35043653 40.56517612 1 54 C0.21753906 54.94488281 -0.56492188 55.88976562 -1.37109375 56.86328125 C-15.59371762 73.31601254 -36.59531115 86.24152713 -58.5 88.8125 C-59.655 88.874375 -60.81 88.93625 -62 89 C-62 85 -62 85 -60.6796875 83.359375 C-59.78636719 82.56273437 -59.78636719 82.56273437 -58.875 81.75 C-55.51224908 78.60552095 -52.8789013 75.28268764 -50.26171875 71.50390625 C-49.84535156 71.00761719 -49.42898437 70.51132812 -49 70 C-48.34 70 -47.68 70 -47 70 C-46.73574219 69.40703125 -46.47148437 68.8140625 -46.19921875 68.203125 C-44.95629575 65.91970946 -43.69598354 64.52573277 -41.8125 62.75 C-37.06668688 58.14260643 -32.72563579 53.23866265 -28.6875 48 C-27.8521875 47.01 -27.8521875 47.01 -27 46 C-26.34 46 -25.68 46 -25 46 C-24.75636719 45.43410156 -24.51273438 44.86820312 -24.26171875 44.28515625 C-22.76771634 41.57930049 -20.94934052 39.66996505 -18.8125 37.4375 C-10.16914877 27.96038498 -4.31992336 17.69134542 -2 5 C-1.34 5 -0.68 5 0 5 C0 3.35 0 1.7 0 0 Z " fill="#1B3F7A" transform="translate(186,227)"/>
<path d="M0 0 C1.26199219 0.00064453 2.52398437 0.00128906 3.82421875 0.00195312 C15.15288708 0.05601358 15.15288708 0.05601358 18.875 1.1875 C19.535 2.1775 20.195 3.1675 20.875 4.1875 C23.15440391 4.84457001 23.15440391 4.84457001 25.875 5.1875 C28.14735719 5.70164412 30.41814202 6.22277542 32.6875 6.75 C34.42966797 7.15412109 34.42966797 7.15412109 36.20703125 7.56640625 C37.08746094 7.77136719 37.96789062 7.97632813 38.875 8.1875 C38.875 8.8475 38.875 9.5075 38.875 10.1875 C39.56464844 10.32285156 40.25429687 10.45820313 40.96484375 10.59765625 C48.18024249 12.25056652 53.64924429 14.83271328 58.875 20.1875 C58.875 20.8475 58.875 21.5075 58.875 22.1875 C59.44992188 22.43242187 60.02484375 22.67734375 60.6171875 22.9296875 C75.44220254 31.18860591 84.79992939 54.03747398 89.93359375 69.34375 C93.46346799 82.44988593 93.91447808 97.78969786 91.875 111.1875 C86.44285856 112.37992129 81.24575435 112.97775145 75.875 111.1875 C75.845271 110.00945801 75.845271 110.00945801 75.81494141 108.80761719 C75.71857316 105.18395801 75.60935482 101.56078963 75.5 97.9375 C75.4690625 96.70257813 75.438125 95.46765625 75.40625 94.1953125 C75.04597861 82.78671843 74.13083562 72.43160142 68.875 62.1875 C68.53082031 61.4759375 68.18664062 60.764375 67.83203125 60.03125 C66.3729979 57.03492098 64.85922613 54.16158578 63.125 51.3125 C61.875 49.1875 61.875 49.1875 61.875 47.1875 C61.215 47.1875 60.555 47.1875 59.875 47.1875 C55.875 41.77573529 55.875 41.77573529 55.875 39.1875 C55.235625 38.919375 54.59625 38.65125 53.9375 38.375 C51.875 37.1875 51.875 37.1875 50.875 34.1875 C48.95833333 33.02083333 48.95833333 33.02083333 46.875 32.1875 C46.215 31.8575 45.555 31.5275 44.875 31.1875 C44.875 30.5275 44.875 29.8675 44.875 29.1875 C44.215 29.1875 43.555 29.1875 42.875 29.1875 C42.875 28.5275 42.875 27.8675 42.875 27.1875 C41.946875 26.9709375 41.946875 26.9709375 41 26.75 C38.875 26.1875 38.875 26.1875 36.875 25.1875 C36.875 24.5275 36.875 23.8675 36.875 23.1875 C34.75573448 22.08862158 32.66763242 21.10774324 30.4375 20.25 C27.875 19.1875 27.875 19.1875 25.3125 17.625 C23.09353522 16.31637975 21.38424843 15.65217564 18.875 15.1875 C18.875 14.5275 18.875 13.8675 18.875 13.1875 C18.15054688 13.07792969 17.42609375 12.96835938 16.6796875 12.85546875 C15.71289062 12.69691406 14.74609375 12.53835937 13.75 12.375 C12.32300781 12.14876953 12.32300781 12.14876953 10.8671875 11.91796875 C7.875 11.1875 7.875 11.1875 4.94140625 9.62109375 C1.32262498 7.92925588 -1.09331798 7.91338156 -5.0625 8.0625 C-9.91904026 8.17556231 -14.35933258 8.09524618 -19.125 7.1875 C-18.795 6.5275 -18.465 5.8675 -18.125 5.1875 C-19.115 4.8575 -20.105 4.5275 -21.125 4.1875 C-21.125 3.5275 -21.125 2.8675 -21.125 2.1875 C-14.2025344 -0.42650567 -7.31917736 -0.07146165 0 0 Z " fill="#39A2D0" transform="translate(117.125,120.8125)"/>
<path d="M0 0 C0.86625 -0.03738281 1.7325 -0.07476562 2.625 -0.11328125 C5 0.3125 5 0.3125 6.78125 1.78125 C8.5808651 5.51891214 8.44399038 9.02574547 8.5 13.125 C8.94551452 26.56254189 11.25370594 38.28821539 17.5625 50.3125 C19.09909262 53.31688258 20.32408008 56.09728571 21.125 59.375 C21.41375 60.344375 21.7025 61.31375 22 62.3125 C23.485 62.8075 23.485 62.8075 25 63.3125 C26.45473883 64.97095965 27.84185877 66.68935723 29.1875 68.4375 C33.36584575 73.68091428 37.88869245 79.25684623 44 82.3125 C44 82.9725 44 83.6325 44 84.3125 C44.721875 84.395 45.44375 84.4775 46.1875 84.5625 C49.56398961 85.46289723 51.320982 87.11433139 54 89.3125 C56.18214568 90.09083534 56.18214568 90.09083534 58 90.3125 C58.33 89.6525 58.66 88.9925 59 88.3125 C61.41973774 90.87211477 63.83522853 93.43570017 66.25 96 C66.93191406 96.72123047 67.61382812 97.44246094 68.31640625 98.18554688 C76.05922779 106.41699308 76.05922779 106.41699308 78 109.3125 C77.505 110.7975 77.505 110.7975 77 112.3125 C50.87079903 109.44224686 28.51897352 94.48547944 11.8203125 74.734375 C-2.06588338 56.68772354 -8.47222578 35.68559503 -8.125 13.0625 C-8.11597656 11.92425781 -8.10695313 10.78601563 -8.09765625 9.61328125 C-8.0744028 6.84612119 -8.04172868 4.0794324 -8 1.3125 C-5.11504794 0.35084931 -3.01406646 0.08521914 0 0 Z " fill="#36A0D1" transform="translate(23,203.6875)"/>
<path d="M0 0 C-3 1 -3 1 -6.1875 -0.4375 C-7.115625 -0.953125 -8.04375 -1.46875 -9 -2 C-9 -2.66 -9 -3.32 -9 -4 C-11.7705904 -4.33546608 -14.54143964 -4.66845842 -17.3125 -5 C-18.09818359 -5.09539062 -18.88386719 -5.19078125 -19.69335938 -5.2890625 C-20.45068359 -5.37929687 -21.20800781 -5.46953125 -21.98828125 -5.5625 C-22.68477783 -5.64628906 -23.38127441 -5.73007813 -24.09887695 -5.81640625 C-26.17935678 -6.04806201 -26.17935678 -6.04806201 -29 -6 C-29 -7.65 -29 -9.3 -29 -11 C-33.57152925 -11.02485982 -38.14301847 -11.04293526 -42.71459961 -11.05493164 C-44.26734096 -11.05993684 -45.82007766 -11.06674301 -47.37280273 -11.07543945 C-49.61443232 -11.08767307 -51.85599918 -11.09326657 -54.09765625 -11.09765625 C-54.78336197 -11.10281754 -55.46906769 -11.10797882 -56.17555237 -11.11329651 C-60.56391821 -11.1137986 -64.68401845 -10.70910669 -69 -10 C-69 -9.34 -69 -8.68 -69 -8 C-67.68 -7.67 -66.36 -7.34 -65 -7 C-65.33 -6.67 -65.66 -6.34 -66 -6 C-60.39424162 -4.88910276 -55.12413021 -5.04581094 -49.4375 -5.2578125 C-45.56994103 -4.96774558 -43.37841785 -3.84236387 -40 -2 C-38.05786543 -1.38389204 -36.09881754 -0.81798986 -34.125 -0.3125 C-33.15820312 -0.06113281 -32.19140625 0.19023437 -31.1953125 0.44921875 C-30.47085938 0.63097656 -29.74640625 0.81273437 -29 1 C-29 1.66 -29 2.32 -29 3 C-28.0925 3.103125 -27.185 3.20625 -26.25 3.3125 C-22.87873774 4.02565163 -21.61792551 4.88876975 -19 7 C-17.34183216 7.68753301 -15.67540664 8.35561283 -14 9 C-13.01 9.66 -12.02 10.32 -11 11 C-11 11.66 -11 12.32 -11 13 C-9.02 13.66 -7.04 14.32 -5 15 C-5 15.66 -5 16.32 -5 17 C-4.34 17 -3.68 17 -3 17 C-3 17.66 -3 18.32 -3 19 C-2.4121875 19.27328125 -1.824375 19.5465625 -1.21875 19.828125 C4.54908909 22.87451888 8.80386243 27.37479788 12 33 C12 33.66 12 34.32 12 35 C12.66 35 13.32 35 14 35 C16.26904626 38.16369878 18.10182623 41.60378164 20 45 C20.38800781 45.6909375 20.77601563 46.381875 21.17578125 47.09375 C27.54296678 59.09060922 28.15765561 71.17821519 28.0625 84.5 C28.05798828 85.70398438 28.05347656 86.90796875 28.04882812 88.1484375 C28.0371195 91.09901073 28.02071995 94.04947859 28 97 C27.67 96.34 27.34 95.68 27 95 C24.98330173 93.86649466 24.98330173 93.86649466 23 93 C22.95101562 91.74445313 22.90203125 90.48890625 22.8515625 89.1953125 C22.36548316 76.47395214 22.36548316 76.47395214 20 64 C19.77183594 63.12859375 19.54367188 62.2571875 19.30859375 61.359375 C18.03347703 56.79298843 16.62069637 52.99344209 14 49 C14 48.34 14 47.68 14 47 C13.34 47 12.68 47 12 47 C11.505 45.865625 11.01 44.73125 10.5 43.5625 C8.24474146 38.97844189 5.11767679 35.55756656 1.609375 31.8828125 C0 30 0 30 0 28 C-1.11375 27.62875 -1.11375 27.62875 -2.25 27.25 C-5.23023087 25.89534961 -6.89919252 24.4898459 -9 22 C-9 21.34 -9 20.68 -9 20 C-9.94875 19.855625 -10.8975 19.71125 -11.875 19.5625 C-15 19 -15 19 -17 18 C-17 17.34 -17 16.68 -17 16 C-18.98 15.67 -20.96 15.34 -23 15 C-23 14.34 -23 13.68 -23 13 C-23.66 13 -24.32 13 -25 13 C-24 11 -24 11 -21 9 C-21.495 8.01 -21.495 8.01 -22 7 C-24.05376006 6.38634292 -24.05376006 6.38634292 -26.4375 6 C-30.78082192 5.21917808 -30.78082192 5.21917808 -33 3 C-36.59270999 1.73273016 -40.2991798 0.89412581 -44 0 C-44.79148437 -0.21011719 -45.58296875 -0.42023438 -46.3984375 -0.63671875 C-52.9155387 -2.12363019 -59.40868182 -2.20845864 -66.0625 -2.25 C-67.44562378 -2.26389771 -67.44562378 -2.26389771 -68.85668945 -2.27807617 C-75.13117568 -2.24957356 -80.89601844 -1.40225724 -87 0 C-88.66579179 0.33767823 -90.33224438 0.67215847 -92 1 C-92 1.66 -92 2.32 -92 3 C-92.9178125 3.20753906 -93.835625 3.41507813 -94.78125 3.62890625 C-101.90814717 5.41811678 -107.20767491 7.05478598 -112.25390625 12.70703125 C-114 14 -114 14 -116.71484375 13.69921875 C-117.46894531 13.46847656 -118.22304687 13.23773438 -119 13 C-107.88470349 -2.49404968 -86.91732033 -10.40232041 -68.8125 -14 C-45.27141682 -17.63449619 -19.83741779 -13.76473888 0 0 Z " fill="#2872A9" transform="translate(165,133)"/>
<path d="M0 0 C2.5 0.25 2.5 0.25 4.5 2.25 C4.81884766 5.13916016 4.81884766 5.13916016 4.9140625 8.7890625 C4.94967285 9.96162598 4.9852832 11.13418945 5.02197266 12.34228516 C5.05597168 13.83808105 5.0899707 15.33387695 5.125 16.875 C5.24875 21.61875 5.3725 26.3625 5.5 31.25 C22.99 31.25 40.48 31.25 58.5 31.25 C58.83 28.61 59.16 25.97 59.5 23.25 C60.5 22.25 60.5 22.25 63.4375 22 C64.448125 22.0825 65.45875 22.165 66.5 22.25 C68.67746353 25.5161953 68.75606429 26.49945834 68.765625 30.28515625 C68.76949219 31.74598633 68.76949219 31.74598633 68.7734375 33.23632812 C68.76570313 34.25146484 68.75796875 35.26660156 68.75 36.3125 C68.76160156 37.84100586 68.76160156 37.84100586 68.7734375 39.40039062 C68.77085937 40.37298828 68.76828125 41.34558594 68.765625 42.34765625 C68.76336914 43.23976807 68.76111328 44.13187988 68.75878906 45.05102539 C68.5 47.25 68.5 47.25 66.5 49.25 C62.875 48.875 62.875 48.875 59.5 48.25 C59.5 45.94 59.5 43.63 59.5 41.25 C41.35 41.25 23.2 41.25 4.5 41.25 C4.5 43.56 4.5 45.87 4.5 48.25 C3.5 49.25 3.5 49.25 0.4375 49.3125 C-0.531875 49.291875 -1.50125 49.27125 -2.5 49.25 C-4.98353038 44.45249507 -4.78967171 39.91079096 -4.765625 34.64453125 C-4.76753845 33.72411545 -4.7694519 32.80369965 -4.77142334 31.85539246 C-4.77278089 29.91636887 -4.76911455 27.97733606 -4.76074219 26.03833008 C-4.74999985 23.06245712 -4.76067086 20.08718282 -4.7734375 17.11132812 C-4.77211655 15.22656116 -4.76955549 13.34179458 -4.765625 11.45703125 C-4.76967346 10.56434036 -4.77372192 9.67164948 -4.77789307 8.75190735 C-4.77158875 7.92732529 -4.76528442 7.10274323 -4.75878906 6.25317383 C-4.75719788 5.52657059 -4.75560669 4.79996735 -4.75396729 4.05134583 C-4.31518059 0.93910806 -2.98170787 0.29817079 0 0 Z " fill="#1B1A51" transform="translate(80.5,192.75)"/>
<path d="M0 0 C1.25771849 3.77315548 0.55279489 5.65263036 -0.375 9.5 C-4.73593839 29.3463076 -2.79259095 48.45601167 8 66 C10.69110504 69.97768913 13.7170715 73.50885422 17 77 C17.61536621 77.66064453 18.23073242 78.32128906 18.86474609 79.00195312 C22.29876698 82.68341951 25.7534254 86.34354551 29.23046875 89.984375 C31.67639372 92.57527594 34.11228604 95.17280581 36.48828125 97.828125 C36.97466064 98.36856445 37.46104004 98.90900391 37.9621582 99.46582031 C39 101 39 101 39 104 C34.46139912 103.46604696 31.70912117 101.5802582 28 99 C27.01 98.67 26.02 98.34 25 98 C25 97.34 25 96.68 25 96 C24.278125 95.773125 23.55625 95.54625 22.8125 95.3125 C19.45540288 93.74585468 17.43385803 91.70358971 15 89 C14.29359375 88.22785156 13.5871875 87.45570313 12.859375 86.66015625 C10.55457821 84.12259025 8.27486555 81.56439389 6 79 C5.47664063 78.42765625 4.95328125 77.8553125 4.4140625 77.265625 C1.33083278 73.78998422 -0.33446011 70.31526245 -2 66 C-2.495 64.845 -2.99 63.69 -3.5 62.5 C-3.995 61.345 -4.49 60.19 -5 59 C-5.49113281 57.91203125 -5.98226562 56.8240625 -6.48828125 55.703125 C-11.48043891 43.47427369 -11.37678181 30.96408538 -11 18 C-10.67 18.66 -10.34 19.32 -10 20 C-9.34 20 -8.68 20 -8 20 C-8 20.66 -8 21.32 -8 22 C-7.01 22.33 -6.02 22.66 -5 23 C-4.80664062 21.84242188 -4.61328125 20.68484375 -4.4140625 19.4921875 C-4.15128853 17.95308283 -3.88825388 16.41402266 -3.625 14.875 C-3.49867187 14.11445313 -3.37234375 13.35390625 -3.2421875 12.5703125 C-2.49243489 8.22174738 -1.52800112 4.15882045 0 0 Z " fill="#2B618E" transform="translate(42,190)"/>
<path d="M0 0 C1.23685547 -0.020625 2.47371094 -0.04125 3.74804688 -0.0625 C5.53758789 -0.07023438 5.53758789 -0.07023438 7.36328125 -0.078125 C9.0016394 -0.09214355 9.0016394 -0.09214355 10.6730957 -0.10644531 C14.07970062 0.29637668 15.94707448 1.22115281 18.6875 3.25 C19.86385297 5.60270593 19.82109359 7.070752 19.8125 9.6875 C19.81636719 10.86119141 19.81636719 10.86119141 19.8203125 12.05859375 C19.6875 14.25 19.6875 14.25 18.6875 17.25 C1.8575 17.25 -14.9725 17.25 -32.3125 17.25 C-33.3125 12.25 -33.3125 12.25 -32.3125 10.25 C-31.31669922 10.30220703 -31.31669922 10.30220703 -30.30078125 10.35546875 C-23.23056949 10.7013898 -23.23056949 10.7013898 -17.3125 7.25 C-16.09965124 4.19570927 -16.09965124 4.19570927 -15.3125 1.25 C-10.8830385 -0.96473075 -4.8639539 0.02008861 0 0 Z " fill="#2772A5" transform="translate(119.3125,205.75)"/>
<path d="M0 0 C1.6875 0.125 1.6875 0.125 4 1 C5.21591503 2.41309045 6.42579908 3.83317025 7.5703125 5.3046875 C10.44854948 8.71767889 13.99115405 11.99557703 18 14 C18 14.66 18 15.32 18 16 C18.721875 16.0825 19.44375 16.165 20.1875 16.25 C23.59321217 17.15818991 25.30050938 18.76139802 28 21 C29.03125 21.474375 30.0625 21.94875 31.125 22.4375 C34.37790408 24.20538265 35.40311236 25.71750874 37 29 C35.68 29.33 34.36 29.66 33 30 C33 30.66 33 31.32 33 32 C31.68 32 30.36 32 29 32 C29 32.99 29 33.98 29 35 C28.443125 34.690625 27.88625 34.38125 27.3125 34.0625 C25.06224451 32.89912384 25.06224451 32.89912384 22.66796875 32.6484375 C19.47547819 31.87251739 17.61796268 30.53006258 15 28.5625 C11.75164127 26.13130652 8.83131857 24.36148642 5 23 C5 22.34 5 21.68 5 21 C4.1646875 20.9071875 4.1646875 20.9071875 3.3125 20.8125 C-0.72136865 19.3951948 -3.23753357 16.34339324 -5.3125 12.6875 C-5.539375 12.130625 -5.76625 11.57375 -6 11 C-5.34 11 -4.68 11 -4 11 C-4 10.34 -4 9.68 -4 9 C-4.66 8.67 -5.32 8.34 -6 8 C-5.01 8 -4.02 8 -3 8 C-2.87625 7.236875 -2.7525 6.47375 -2.625 5.6875 C-2 3 -2 3 0 0 Z " fill="#35A8D8" transform="translate(49,272)"/>
<path d="M0 0 C-3 1 -3 1 -6.1875 -0.4375 C-7.115625 -0.953125 -8.04375 -1.46875 -9 -2 C-9 -2.66 -9 -3.32 -9 -4 C-11.7705904 -4.33546608 -14.54143964 -4.66845842 -17.3125 -5 C-18.09818359 -5.09539062 -18.88386719 -5.19078125 -19.69335938 -5.2890625 C-20.45068359 -5.37929687 -21.20800781 -5.46953125 -21.98828125 -5.5625 C-22.68477783 -5.64628906 -23.38127441 -5.73007813 -24.09887695 -5.81640625 C-26.17935678 -6.04806201 -26.17935678 -6.04806201 -29 -6 C-29 -7.65 -29 -9.3 -29 -11 C-33.66308199 -11.02468646 -38.32612608 -11.04285349 -42.98925781 -11.05493164 C-44.57617861 -11.05996588 -46.16309477 -11.06679369 -47.75 -11.07543945 C-50.02865749 -11.08754482 -52.30725376 -11.09323733 -54.5859375 -11.09765625 C-55.29744965 -11.10281754 -56.00896179 -11.10797882 -56.74203491 -11.11329651 C-60.49593556 -11.17314758 -60.49593556 -11.17314758 -64 -10 C-65.76966284 -9.89469775 -67.54092484 -9.8157008 -69.3125 -9.75 C-75.50009221 -9.30962854 -80.52347086 -7.50884165 -86.1875 -5.05859375 C-89 -4 -89 -4 -93 -4 C-93 -3.01 -93 -2.02 -93 -1 C-91.89591797 -1.2165625 -91.89591797 -1.2165625 -90.76953125 -1.4375 C-89.79371094 -1.623125 -88.81789063 -1.80875 -87.8125 -2 C-86.84957031 -2.185625 -85.88664062 -2.37125 -84.89453125 -2.5625 C-82.2065794 -2.96877612 -79.71228981 -3.07933572 -77 -3 C-81.77105802 -0.32820751 -86.53911054 1 -92 1 C-92 1.66 -92 2.32 -92 3 C-92.9178125 3.20753906 -93.835625 3.41507813 -94.78125 3.62890625 C-101.90814717 5.41811678 -107.20767491 7.05478598 -112.25390625 12.70703125 C-114 14 -114 14 -116.71484375 13.69921875 C-117.46894531 13.46847656 -118.22304687 13.23773438 -119 13 C-107.88470349 -2.49404968 -86.91732033 -10.40232041 -68.8125 -14 C-45.27141682 -17.63449619 -19.83741779 -13.76473888 0 0 Z " fill="#35719A" transform="translate(165,133)"/>
<path d="M0 0 C2.87644472 3.36284062 4.14370129 6.77005676 5.5625 10.9375 C8.07794076 19.19809895 8.07794076 19.19809895 13 26 C14.34331654 27.99330842 15.67594012 29.99384866 17 32 C18.0828125 33.299375 18.0828125 33.299375 19.1875 34.625 C20.90486316 36.87533794 21.59136342 38.24170306 22 41 C22.99 41 23.98 41 25 41 C25 41.66 25 42.32 25 43 C25.598125 43.268125 26.19625 43.53625 26.8125 43.8125 C29.06604393 45.03585242 30.42858036 45.97960332 32 48 C32.6875 50.6875 32.6875 50.6875 33 53 C32.01 52.67 31.02 52.34 30 52 C30.33 52.66 30.66 53.32 31 54 C26.57396895 52.60896167 24.03202074 50.36804366 21 47 C20.29359375 46.22785156 19.5871875 45.45570313 18.859375 44.66015625 C16.55457821 42.12259025 14.27486555 39.56439389 12 37 C11.21496094 36.14148438 11.21496094 36.14148438 10.4140625 35.265625 C7.33083278 31.78998422 5.66553989 28.31526245 4 24 C3.2575 22.2675 3.2575 22.2675 2.5 20.5 C1.7575 18.7675 1.7575 18.7675 1 17 C0.46375 15.80375 -0.0725 14.6075 -0.625 13.375 C-1.78697864 10.5228706 -2.54106567 8.02896661 -3 5 C-2.34 5 -1.68 5 -1 5 C-0.67 3.35 -0.34 1.7 0 0 Z " fill="#226BA5" transform="translate(36,232)"/>
<path d="M0 0 C0.66 0 1.32 0 2 0 C2 0.66 2 1.32 2 2 C2.66 2 3.32 2 4 2 C5.36176922 3.64351457 6.68962066 5.31522656 8 7 C11.46403983 10.81873029 11.46403983 10.81873029 16 13 C16 13.66 16 14.32 16 15 C16.78375 15.185625 17.5675 15.37125 18.375 15.5625 C22.68230218 17.27056811 25.88770005 19.7155972 29.53515625 22.5390625 C32.33099599 24.19618463 33.81876791 24.16175756 37 24 C38.8125 25.5 38.8125 25.5 40 27 C40 26.01 40 25.02 40 24 C41.32 24 42.64 24 44 24 C44 23.34 44 22.68 44 22 C44.99 21.34 45.98 20.68 47 20 C44.525 17.03 44.525 17.03 42 14 C42.66 13.34 43.32 12.68 44 12 C46.41973774 14.55961477 48.83522853 17.12320017 51.25 19.6875 C52.27287109 20.7693457 52.27287109 20.7693457 53.31640625 21.87304688 C61.05922779 30.10449308 61.05922779 30.10449308 63 33 C62.67 33.99 62.34 34.98 62 36 C38.03386384 33.36735626 15.57027634 20.27662234 0 2 C0 1.34 0 0.68 0 0 Z " fill="#3593C3" transform="translate(38,280)"/>
<path d="M0 0 C1.13116179 3.39348537 0.96678184 4.61626354 0 8 C-0.495 8.763125 -0.99 9.52625 -1.5 10.3125 C-4.29087152 15.31281148 -4.45471283 20.50441818 -3 26 C-3 26.66 -3 27.32 -3 28 C-1.865625 28.309375 -0.73125 28.61875 0.4375 28.9375 C4 30 4 30 5 31 C5.99 31 6.98 31 8 31 C9.42818812 28.14362377 10.67935224 25.21196714 11.96484375 22.2890625 C12.92597673 20.16368918 13.94179845 18.07844071 15 16 C16.28739027 19.86217082 15.23781541 22.43370072 14.125 26.1875 C12.92552666 30.39626703 11.78904712 34.50361796 11.375 38.875 C11.25125 39.90625 11.1275 40.9375 11 42 C10.01 42.495 10.01 42.495 9 43 C9 42.34 9 41.68 9 41 C8.34 41 7.68 41 7 41 C7 40.34 7 39.68 7 39 C6.34 39 5.68 39 5 39 C5 38.34 5 37.68 5 37 C3.68 36.34 2.36 35.68 1 35 C1 34.34 1 33.68 1 33 C-0.6254308 33.14095064 -2.25034051 33.28792087 -3.875 33.4375 C-4.77992187 33.51871094 -5.68484375 33.59992188 -6.6171875 33.68359375 C-9.01110861 33.86989285 -9.01110861 33.86989285 -11 35 C-11.92213676 24.67206834 -8.12800586 14.37869114 -4 5 C-2.4375 3.3125 -2.4375 3.3125 -1 2 C-0.67 1.34 -0.34 0.68 0 0 Z M2 3 C2.33 3.66 2.66 4.32 3 5 C2.34 4.67 1.68 4.34 1 4 C1.33 3.67 1.66 3.34 2 3 Z " fill="#1D2C5C" transform="translate(27,171)"/>
<path d="M0 0 C0.99 0.33 1.98 0.66 3 1 C2.175 1.598125 1.35 2.19625 0.5 2.8125 C-0.325 3.534375 -1.15 4.25625 -2 5 C-2 5.99 -2 6.98 -2 8 C-4.3299645 9.65526435 -6.59089627 11.08832059 -9.0625 12.5 C-9.71927734 12.89058594 -10.37605469 13.28117187 -11.05273438 13.68359375 C-17.72614444 17.58901797 -23.58238209 20.31344677 -31.4375 20.6875 C-32.67371094 20.75324219 -33.90992188 20.81898438 -35.18359375 20.88671875 C-36.11300781 20.92410156 -37.04242188 20.96148437 -38 21 C-38 21.66 -38 22.32 -38 23 C-39.32 22.67 -40.64 22.34 -42 22 C-41.505 20.515 -41.505 20.515 -41 19 C-40.34 19 -39.68 19 -39 19 C-38.74476563 18.35804688 -38.48953125 17.71609375 -38.2265625 17.0546875 C-37.82179687 16.37664062 -37.41703125 15.69859375 -37 15 C-35.0072276 14.51898597 -33.00699161 14.05995105 -30.98828125 13.703125 C-26.29779288 12.59948068 -21.88979412 10.78659831 -17.40966797 9.03173828 C-12.18394162 7 -12.18394162 7 -10 7 C-10 6.34 -10 5.68 -10 5 C-8.68 5 -7.36 5 -6 5 C-6 4.34 -6 3.68 -6 3 C-5.195625 2.690625 -4.39125 2.38125 -3.5625 2.0625 C-1.10919595 1.23664655 -1.10919595 1.23664655 0 0 Z " fill="#22659E" transform="translate(170,291)"/>
<path d="M0 0 C0.66 0 1.32 0 2 0 C2.495 2.97 2.495 2.97 3 6 C0.69 6.99 -1.62 7.98 -4 9 C-4 10.32 -4 11.64 -4 13 C-4.33 13.66 -4.66 14.32 -5 15 C-7.33333333 15 -9.66666667 15 -12 15 C-12.33 16.32 -12.66 17.64 -13 19 C-11.68 19.66 -10.36 20.32 -9 21 C-12.72986533 23.48657689 -14.90235606 24.92017135 -19.4375 25.25 C-24.25864349 26.26497758 -25.22740868 28.05115781 -28 32 C-26.68 32.33 -25.36 32.66 -24 33 C-24 32.34 -24 31.68 -24 31 C-20.37 30.67 -16.74 30.34 -13 30 C-16.06848659 32.04565773 -18.32993651 32.78134287 -21.875 33.6875 C-22.90367187 33.95949219 -23.93234375 34.23148437 -24.9921875 34.51171875 C-28.0354359 35.00575258 -30.05155721 34.81054977 -33 34 C-31.35044362 29.91068059 -28.42596684 27.02035178 -25.4375 23.875 C-21.81366093 20.23596593 -21.81366093 20.23596593 -19 16 C-18.34 16 -17.68 16 -17 16 C-16.60941406 15.12408203 -16.60941406 15.12408203 -16.2109375 14.23046875 C-14.92216506 11.85663306 -13.5249146 10.22485946 -11.625 8.3125 C-11.03976563 7.71050781 -10.45453125 7.10851562 -9.8515625 6.48828125 C-7.84687112 4.87691539 -6.47090324 4.54683924 -4 4 C-2.64691687 2.68671343 -1.31129922 1.35500919 0 0 Z " fill="#2B587C" transform="translate(156,281)"/>
<path d="M0 0 C0.99 -0.33 1.98 -0.66 3 -1 C3 0.32 3 1.64 3 3 C5.97 3.33 8.94 3.66 12 4 C12 4.66 12 5.32 12 6 C14.64 6.66 17.28 7.32 20 8 C20 8.66 20 9.32 20 10 C20.598125 10.268125 21.19625 10.53625 21.8125 10.8125 C24.04679397 12.02540244 25.28237004 13.14495964 27 15 C27.763125 15.7425 28.52625 16.485 29.3125 17.25 C41 29.20930233 41 29.20930233 41 35 C41.66 35 42.32 35 43 35 C49.97123567 47.95051685 52.01500304 59.85822296 52.60546875 74.41210938 C52.66154297 75.6409082 52.66154297 75.6409082 52.71875 76.89453125 C52.74904297 77.63550049 52.77933594 78.37646973 52.81054688 79.13989258 C52.89840065 81.09203694 52.89840065 81.09203694 54 83 C52.68 82.67 51.36 82.34 50 82 C50 83.65 50 85.3 50 87 C49.67 87 49.34 87 49 87 C49.02094727 86.32646484 49.04189453 85.65292969 49.06347656 84.95898438 C49.7349111 60.02241562 46.30936882 40.10042965 29 21 C19.10588036 11.06000346 5.65059609 4.15013756 -8 1 C-8 0.67 -8 0.34 -8 0 C-4.71303767 -0.79953138 -3.28976808 -1.09658936 0 0 Z " fill="#2E5680" transform="translate(136,145)"/>
<path d="M0 0 C1.010625 0.0825 2.02125 0.165 3.0625 0.25 C5.23996353 3.5161953 5.31856429 4.49945834 5.328125 8.28515625 C5.33199219 9.74598633 5.33199219 9.74598633 5.3359375 11.23632812 C5.32820313 12.25146484 5.32046875 13.26660156 5.3125 14.3125 C5.32023437 15.33150391 5.32796875 16.35050781 5.3359375 17.40039062 C5.33335937 18.37298828 5.33078125 19.34558594 5.328125 20.34765625 C5.32586914 21.23976807 5.32361328 22.13187988 5.32128906 23.05102539 C5.0625 25.25 5.0625 25.25 3.0625 27.25 C-0.5625 26.875 -0.5625 26.875 -3.9375 26.25 C-3.9375 23.94 -3.9375 21.63 -3.9375 19.25 C-6.9075 19.25 -9.8775 19.25 -12.9375 19.25 C-9.32613788 17.44431894 -8.392969 17.00148437 -4.6875 17.125 C-3.45 17.16625 -2.2125 17.2075 -0.9375 17.25 C-1.5975 16.63125 -2.2575 16.0125 -2.9375 15.375 C-4.9375 13.25 -4.9375 13.25 -4.9375 11.25 C-6.5875 10.92 -8.2375 10.59 -9.9375 10.25 C-6.0625 9.25 -6.0625 9.25 -4.9375 9.25 C-4.793125 7.950625 -4.64875 6.65125 -4.5 5.3125 C-3.94704654 0.33591885 -3.94704654 0.33591885 0 0 Z " fill="#1D1B4A" transform="translate(143.9375,214.75)"/>
<path d="M0 0 C0.33 0 0.66 0 1 0 C1.55157684 18.24800034 -8.70039376 36.32152928 -20 50 C-21.33445537 51.66576842 -22.66813045 53.33216336 -24 55 C-25.32 54.67 -26.64 54.34 -28 54 C-26.9790625 53.071875 -26.9790625 53.071875 -25.9375 52.125 C-20.22722595 46.39845736 -15.79737459 39.56936654 -13 32 C-13.66 32 -14.32 32 -15 32 C-15 30.02 -15 28.04 -15 26 C-13.5459375 26.0309375 -13.5459375 26.0309375 -12.0625 26.0625 C-9.12534105 26.35618499 -9.12534105 26.35618499 -8 25 C-7.79043117 23.21284356 -7.63188384 21.41956231 -7.5 19.625 C-7.26763656 16.47979491 -7.00124031 14.00372093 -6 11 C-6.33 10.34 -6.66 9.68 -7 9 C-6.34 8.67 -5.68 8.34 -5 8 C-5 6.68 -5 5.36 -5 4 C-4.360625 3.896875 -3.72125 3.79375 -3.0625 3.6875 C-2.381875 3.460625 -1.70125 3.23375 -1 3 C-0.67 2.01 -0.34 1.02 0 0 Z " fill="#1A1E50" transform="translate(207,231)"/>
<path d="M0 0 C0 0.66 0 1.32 0 2 C1.32 2.33 2.64 2.66 4 3 C3.67 3.33 3.34 3.66 3 4 C8.60575838 5.11089724 13.87586979 4.95418906 19.5625 4.7421875 C23.43005897 5.03225442 25.62158215 6.15763613 29 8 C30.94213457 8.61610796 32.90118246 9.18201014 34.875 9.6875 C35.84179688 9.93886719 36.80859375 10.19023437 37.8046875 10.44921875 C38.52914062 10.63097656 39.25359375 10.81273437 40 11 C40 11.66 40 12.32 40 13 C34.67542567 12.55036928 30.07380944 11.72509521 25 10 C16.75274427 8.02282539 8.7631672 7.72324893 0.3125 7.8125 C-0.85861328 7.81314453 -2.02972656 7.81378906 -3.23632812 7.81445312 C-9.25659917 7.84501288 -15.04375761 8.14910823 -21 9 C-22.32 9 -23.64 9 -25 9 C-24.67 8.01 -24.34 7.02 -24 6 C-21.28517076 4.77921792 -18.68271443 3.76327286 -15.875 2.8125 C-14.75351563 2.40354492 -14.75351563 2.40354492 -13.609375 1.98632812 C-8.87280912 0.34008267 -5.00887309 -0.29893805 0 0 Z " fill="#2C79AE" transform="translate(96,123)"/>
<path d="M0 0 C2.4375 1.5625 2.4375 1.5625 4 4 C4.46126687 7.69013497 4.48520386 10.02959229 2.8125 13.375 C0.49060303 15.45670073 -0.89157139 15.85197959 -4 16 C-6.93285432 15.23187149 -8.62461272 14.33784856 -10.875 12.3125 C-12.55034251 8.86874039 -11.99044279 6.63162357 -11 3 C-7.92160879 -0.67038952 -4.56677188 -0.57084649 0 0 Z " fill="#325C7D" transform="translate(98,200)"/>
<path d="M0 0 C1.23685547 -0.020625 2.47371094 -0.04125 3.74804688 -0.0625 C5.53758789 -0.07023438 5.53758789 -0.07023438 7.36328125 -0.078125 C9.0016394 -0.09214355 9.0016394 -0.09214355 10.6730957 -0.10644531 C14.07970062 0.29637668 15.94707448 1.22115281 18.6875 3.25 C19.86385297 5.60270593 19.82109359 7.070752 19.8125 9.6875 C19.81636719 10.86119141 19.81636719 10.86119141 19.8203125 12.05859375 C19.6875 14.25 19.6875 14.25 18.6875 17.25 C1.8575 17.25 -14.9725 17.25 -32.3125 17.25 C-33.3125 12.25 -33.3125 12.25 -32.3125 10.25 C-31.31669922 10.30220703 -31.31669922 10.30220703 -30.30078125 10.35546875 C-23.23056949 10.7013898 -23.23056949 10.7013898 -17.3125 7.25 C-16.09965124 4.19570927 -16.09965124 4.19570927 -15.3125 1.25 C-10.8830385 -0.96473075 -4.8639539 0.02008861 0 0 Z M-15.56640625 5.65625 C-17.45817232 8.88390396 -17.45817232 8.88390396 -17.3125 11.25 C-17.90417969 11.31058594 -18.49585937 11.37117187 -19.10546875 11.43359375 C-23.22228208 11.87012371 -27.26794533 12.33671346 -31.3125 13.25 C-28.72742687 15.83507313 -26.79066056 16.16589379 -23.19903564 16.37025452 C-22.44402771 16.36803391 -21.68901978 16.36581329 -20.91113281 16.36352539 C-20.0505426 16.36344986 -19.18995239 16.36337433 -18.30328369 16.36329651 C-17.38335632 16.35813522 -16.46342896 16.35297394 -15.515625 16.34765625 C-14.56685486 16.3462413 -13.61808472 16.34482635 -12.64056396 16.34336853 C-9.61451038 16.33777742 -6.58853117 16.32522652 -3.5625 16.3125 C-1.50911565 16.30748385 0.54426986 16.30292115 2.59765625 16.29882812 C7.62763276 16.28781089 12.65755378 16.27055233 17.6875 16.25 C17.74166188 14.64620659 17.78036638 13.04188594 17.8125 11.4375 C17.83570313 10.54417969 17.85890625 9.65085938 17.8828125 8.73046875 C17.87035827 5.99597286 17.87035827 5.99597286 15.6875 3.25 C10.72575252 1.39707089 4.97158626 1.86129491 -0.25 1.75 C-1.33474609 1.69585937 -2.41949219 1.64171875 -3.53710938 1.5859375 C-10.52530547 1.35562411 -10.52530547 1.35562411 -15.56640625 5.65625 Z " fill="#305779" transform="translate(119.3125,205.75)"/>
<path d="M0 0 C1.27208622 0.62244599 2.54261882 1.24806767 3.8125 1.875 C4.52019531 2.22304687 5.22789063 2.57109375 5.95703125 2.9296875 C8 4 8 4 11 6 C11 5.34 11 4.68 11 4 C11.73605469 3.95101562 12.47210938 3.90203125 13.23046875 3.8515625 C14.20628906 3.77679688 15.18210938 3.70203125 16.1875 3.625 C17.15042969 3.55539063 18.11335938 3.48578125 19.10546875 3.4140625 C22.02220232 2.99682396 24.29142051 2.11984967 27 1 C27.99 1 28.98 1 30 1 C30 1.66 30 2.32 30 3 C28.7934375 3.433125 28.7934375 3.433125 27.5625 3.875 C24.8673532 4.73262568 24.8673532 4.73262568 24 7 C25.32 7.33 26.64 7.66 28 8 C28 8.33 28 8.66 28 9 C27.37657715 8.98428955 26.7531543 8.9685791 26.11083984 8.95239258 C13.99048296 8.68774134 2.72182416 8.58049282 -9 12 C-10.01191406 12.28617188 -11.02382812 12.57234375 -12.06640625 12.8671875 C-14.38982582 13.54579405 -16.69812975 14.25215736 -19 15 C-16.79721592 12.7158631 -14.96642998 11.20511218 -12 10 C-11.01 10 -10.02 10 -9 10 C-9 9.34 -9 8.68 -9 8 C-7.68 8.33 -6.36 8.66 -5 9 C-5 8.34 -5 7.68 -5 7 C-4.030625 6.71125 -3.06125 6.4225 -2.0625 6.125 C1.10664203 5.35785318 1.10664203 5.35785318 2 3 C1.34 3 0.68 3 0 3 C0 2.01 0 1.02 0 0 Z " fill="#4F6E95" transform="translate(98,136)"/>
<path d="M0 0 C21.08870041 -0.9834109 42.36279643 2.76194038 60 15 C57 16 57 16 53.8125 14.5625 C52.884375 14.046875 51.95625 13.53125 51 13 C51 12.34 51 11.68 51 11 C48.2294096 10.66453392 45.45856036 10.33154158 42.6875 10 C41.90181641 9.90460938 41.11613281 9.80921875 40.30664062 9.7109375 C39.54931641 9.62070313 38.79199219 9.53046875 38.01171875 9.4375 C37.31522217 9.35371094 36.61872559 9.26992187 35.90112305 9.18359375 C33.82064322 8.95193799 33.82064322 8.95193799 31 9 C31 7.35 31 5.7 31 4 C20.77 3.34 10.54 2.68 0 2 C0 1.34 0 0.68 0 0 Z " fill="#417896" transform="translate(105,118)"/>
<path d="M0 0 C0.90105469 0.00902344 1.80210938 0.01804688 2.73046875 0.02734375 C3.41753906 0.03894531 4.10460938 0.05054688 4.8125 0.0625 C4.4825 1.3825 4.1525 2.7025 3.8125 4.0625 C2.513125 4.041875 1.21375 4.02125 -0.125 4 C-1.47915633 3.97850546 -2.83506083 3.99101801 -4.1875 4.0625 C-6.96582638 6.84082638 -5.43567028 15.15886175 -5.44726562 18.9050293 C-5.3817486 27.03229011 -4.29274589 34.2054216 -2.1875 42.0625 C-2.1875 42.7225 -2.1875 43.3825 -2.1875 44.0625 C-2.8475 44.0625 -3.5075 44.0625 -4.1875 44.0625 C-4.67223678 42.37659158 -5.14998926 40.68867455 -5.625 39 C-6.02525391 37.59041016 -6.02525391 37.59041016 -6.43359375 36.15234375 C-8.31164546 28.45525101 -8.3082093 21.00116626 -8.25 13.125 C-8.24548828 11.96419922 -8.24097656 10.80339844 -8.23632812 9.60742188 C-8.22460647 6.75906066 -8.2081976 3.91080778 -8.1875 1.0625 C-5.17259443 0.05753148 -3.14568308 -0.04085303 0 0 Z " fill="#367097" transform="translate(23.1875,203.9375)"/>
<path d="M0 0 C0 10.23 0 20.46 0 31 C-0.66 31 -1.32 31 -2 31 C-3 26.125 -3 26.125 -3 25 C-3.20625 24.38125 -3.4125 23.7625 -3.625 23.125 C-4 21 -4 21 -2 18 C-3.32 18 -4.64 18 -6 18 C-6.02699725 15.72923158 -6.04639453 13.45837179 -6.0625 11.1875 C-6.07990234 9.29064453 -6.07990234 9.29064453 -6.09765625 7.35546875 C-6 4 -6 4 -5 1 C-3.28960011 0.41205004 -1.81522119 0 0 0 Z " fill="#19164F" transform="translate(84,196)"/>
<path d="M0 0 C0.66 0 1.32 0 2 0 C2.33 1.98 2.66 3.96 3 6 C-0.465 7.485 -0.465 7.485 -4 9 C-4 10.32 -4 11.64 -4 13 C-4.33 13.66 -4.66 14.32 -5 15 C-7.33333333 15 -9.66666667 15 -12 15 C-12.33 16.32 -12.66 17.64 -13 19 C-11.68 19.66 -10.36 20.32 -9 21 C-14.05787568 24.37191712 -16.77909633 25.23926553 -23 25 C-18.375 20.125 -18.375 20.125 -15 19 C-14.731875 18.29875 -14.46375 17.5975 -14.1875 16.875 C-12.54870191 12.90738358 -9.87678661 10.13913507 -7 7 C-7.33 6.34 -7.66 5.68 -8 5 C-7.4225 4.9175 -6.845 4.835 -6.25 4.75 C-3.39201069 3.7973369 -2.07045412 2.13946926 0 0 Z " fill="#1B548F" transform="translate(156,281)"/>
<path d="M0 0 C0.66 0.33 1.32 0.66 2 1 C1.2575 1.680625 0.515 2.36125 -0.25 3.0625 C-2.66342278 5.47592278 -4.28528173 8.03270193 -5.90234375 11.05078125 C-7.15235425 13.27055079 -8.55797154 15.33770417 -10 17.4375 C-12.73577817 21.47867486 -14.91544374 25.59036175 -17 30 C-18.32 29.34 -19.64 28.68 -21 28 C-21 25.03 -21 22.06 -21 19 C-19.68 19.33 -18.36 19.66 -17 20 C-16.938125 19.443125 -16.87625 18.88625 -16.8125 18.3125 C-15.67747594 15.08204692 -13.39558329 13.39558329 -11 11 C-11 10.01 -11 9.02 -11 8 C-10.01 8 -9.02 8 -8 8 C-5.43750025 5.68767578 -5.43750025 5.68767578 -3 3 C-2 2 -1 1 0 0 Z " fill="#273C6B" transform="translate(61,160)"/>
<path d="M0 0 C-4.77105802 2.67179249 -9.53911054 4 -15 4 C-15 4.66 -15 5.32 -15 6 C-15.9178125 6.20753906 -16.835625 6.41507813 -17.78125 6.62890625 C-24.90814717 8.41811678 -30.20767491 10.05478598 -35.25390625 15.70703125 C-37 17 -37 17 -39.71484375 16.69921875 C-40.46894531 16.46847656 -41.22304688 16.23773438 -42 16 C-35.80714386 8.46535837 -32.40885696 5.68666325 -22.5 4.625 C-18.98657858 4.17284759 -18.98657858 4.17284759 -16.0625 2.5 C-10.9586967 0.00017797 -5.65382791 -0.17668212 0 0 Z " fill="#2A6FA6" transform="translate(88,130)"/>
<path d="M0 0 C2.875 0.1875 2.875 0.1875 6 1 C7.375 3.5625 7.375 3.5625 8 6 C7.01 6.495 7.01 6.495 6 7 C5.34 6.67 4.68 6.34 4 6 C4 6.99 4 7.98 4 9 C3.34 9 2.68 9 2 9 C2 9.66 2 10.32 2 11 C2.99 11.33 3.98 11.66 5 12 C-0.75 17 -0.75 17 -3 17 C-3.12375 17.5775 -3.2475 18.155 -3.375 18.75 C-4.00648824 21.02335767 -4.88858191 22.9253529 -6 25 C-7.28961193 22.42077613 -6.79211692 21.59708789 -6.00390625 18.8671875 C-5.77509766 18.06152344 -5.54628906 17.25585938 -5.31054688 16.42578125 C-5.06369141 15.58402344 -4.81683594 14.74226562 -4.5625 13.875 C-4.31951172 13.02550781 -4.07652344 12.17601562 -3.82617188 11.30078125 C-3.2238569 9.19858388 -2.61489475 7.09854569 -2 5 C-1.34 5 -0.68 5 0 5 C0 3.35 0 1.7 0 0 Z " fill="#1E2D56" transform="translate(186,227)"/>
<path d="M0 0 C1.98 0 3.96 0 6 0 C7.1484375 1.6796875 7.1484375 1.6796875 8 4 C5.2710449 11.98283127 -0.66789433 18.62193757 -6 25 C-7.00904695 26.32649992 -8.01227398 27.65754885 -9 29 C-10.32 28.67 -11.64 28.34 -13 28 C-12.319375 27.38125 -11.63875 26.7625 -10.9375 26.125 C-5.22722595 20.39845736 -0.79737459 13.56936654 2 6 C1.34 6 0.68 6 0 6 C0 4.02 0 2.04 0 0 Z " fill="#162C64" transform="translate(192,257)"/>
<path d="M0 0 C3.17422653 1.66269009 5.20140817 3.75490073 7.625 6.375 C8.285 7.035 8.945 7.695 9.625 8.375 C9.29528521 11.67214793 9.0023161 12.9976839 6.625 15.375 C5.24937146 14.08534824 3.91733607 12.74810707 2.625 11.375 C2.625 10.715 2.625 10.055 2.625 9.375 C1.84125 9.148125 1.0575 8.92125 0.25 8.6875 C-2.375 7.375 -2.375 7.375 -3.625 4.875 C-3.8725 4.05 -4.12 3.225 -4.375 2.375 C-4.705 1.715 -5.035 1.055 -5.375 0.375 C-2.375 -0.625 -2.375 -0.625 0 0 Z " fill="#236FA3" transform="translate(162.375,151.625)"/>
<path d="M0 0 C0.66 1.32 1.32 2.64 2 4 C2.99 4 3.98 4 5 4 C5 4.66 5 5.32 5 6 C5.598125 6.268125 6.19625 6.53625 6.8125 6.8125 C9.06604393 8.03585242 10.42858036 8.97960332 12 11 C12.6875 13.6875 12.6875 13.6875 13 16 C12.01 15.67 11.02 15.34 10 15 C10.33 15.66 10.66 16.32 11 17 C6.52929078 15.59491996 4.16321468 13.40653888 1 10 C-0.1446875 8.9171875 -0.1446875 8.9171875 -1.3125 7.8125 C-3 6 -3 6 -3 4 C-2.34 4 -1.68 4 -1 4 C-0.67 2.68 -0.34 1.36 0 0 Z " fill="#2373AB" transform="translate(56,269)"/>
<path d="M0 0 C2.375 -0.125 2.375 -0.125 5 0 C7.79177569 2.79177569 7.31213484 4.63183572 7.4140625 8.5390625 C7.45273438 9.84101563 7.49140625 11.14296875 7.53125 12.484375 C7.56270763 13.86457862 7.59395491 15.24478704 7.625 16.625 C7.66317934 18.01304541 7.70223105 19.40106711 7.7421875 20.7890625 C7.83672688 24.19248027 7.91946229 27.59622212 8 31 C16.58 31 25.16 31 34 31 C34.495 31.99 34.495 31.99 35 33 C25.43 33 15.86 33 6 33 C4.59087904 30.18175808 4.88816447 27.82748718 4.90234375 24.6796875 C4.90556641 23.42285156 4.90878906 22.16601562 4.91210938 20.87109375 C4.92048828 19.55238281 4.92886719 18.23367187 4.9375 16.875 C4.94251511 15.53515789 4.94707799 14.195314 4.95117188 12.85546875 C4.96298914 9.57026794 4.97946383 6.28515603 5 3 C2.03 2.505 2.03 2.505 -1 2 C-0.67 1.34 -0.34 0.68 0 0 Z " fill="#313357" transform="translate(78,193)"/>
<path d="M0 0 C-2.45267716 3.4162289 -3.78306518 4.77528642 -8.00390625 5.5546875 C-11.00680971 5.78867998 -13.98873113 5.94717072 -17 6 C-17 6.66 -17 7.32 -17 8 C-18.32 7.67 -19.64 7.34 -21 7 C-20.67 6.01 -20.34 5.02 -20 4 C-19.34 4 -18.68 4 -18 4 C-17.76023438 3.36578125 -17.52046875 2.7315625 -17.2734375 2.078125 C-16 0 -16 0 -13.9765625 -0.828125 C-13.20054687 -0.96734375 -12.42453125 -1.1065625 -11.625 -1.25 C-10.85414063 -1.39953125 -10.08328125 -1.5490625 -9.2890625 -1.703125 C-5.26505329 -2.22501015 -3.43775868 -2.29183912 0 0 Z " fill="#2875AF" transform="translate(149,306)"/>
<path d="M0 0 C0.33 0.66 0.66 1.32 1 2 C0.67 2.99 0.34 3.98 0 5 C-0.66 5 -1.32 5 -2 5 C-2 5.66 -2 6.32 -2 7 C9.55 7.33 21.1 7.66 33 8 C33 8.33 33 8.66 33 9 C26.98601473 9.04955115 20.97214914 9.08579131 14.95800781 9.10986328 C12.91339039 9.11990179 10.86878726 9.13353542 8.82421875 9.15087891 C5.88017239 9.1752217 2.93631637 9.18650478 -0.0078125 9.1953125 C-0.9174173 9.20563507 -1.82702209 9.21595764 -2.76419067 9.22659302 C-7.58804539 9.22743991 -11.46926202 8.88400471 -16 7 C-15.67 6.34 -15.34 5.68 -15 5 C-13.1746875 5.0309375 -13.1746875 5.0309375 -11.3125 5.0625 C-6.57966593 5.06644923 -6.57966593 5.06644923 -2 4 C-0.63979849 2.03241727 -0.63979849 2.03241727 0 0 Z " fill="#28648F" transform="translate(104,213)"/>
<path d="M0 0 C4.42775992 0.4344998 6.3938976 3.19320171 9.25 6.375 C9.70890625 6.87 10.1678125 7.365 10.640625 7.875 C14 11.61430432 14 11.61430432 14 15 C9.46139912 14.46604696 6.70912117 12.5802582 3 10 C2.01 9.67 1.02 9.34 0 9 C-1.1875 5.9375 -1.1875 5.9375 -2 3 C-1.01 3.33 -0.02 3.66 1 4 C0.67 2.68 0.34 1.36 0 0 Z " fill="#1E6B9F" transform="translate(67,279)"/>
<path d="M0 0 C10.46021625 8.53895204 10.46021625 8.53895204 14 14 C13.67 14.99 13.34 15.98 13 17 C3.74762125 15.86463484 -4.35358813 13.35112413 -13 10 C-9.57797036 8.82269622 -7.63333402 9.20053055 -4.25 10.375 C0.20977634 11.82409647 4.33701102 12.56824176 9 13 C6.91084674 9.67282999 5.04570833 7.04570833 2.25 4.25 C1.13625 3.13625 1.13625 3.13625 0 2 C0 1.34 0 0.68 0 0 Z " fill="#417E9C" transform="translate(87,299)"/>
<path d="M0 0 C1.65834457 2.18599966 2.03587455 3.3901327 1.875 6.125 C1 8 1 8 -0.6875 9.3125 C-3.72203131 10.21465796 -5.94880471 9.69345348 -9 9 C-10.125 3.25 -10.125 3.25 -9 1 C-5.7815932 -1.1839189 -3.64901531 -1.34437406 0 0 Z " fill="#2D75AC" transform="translate(98,203)"/>
<path d="M0 0 C0.33 0.66 0.66 1.32 1 2 C0.67 2.66 0.34 3.32 0 4 C0.66 4.33 1.32 4.66 2 5 C1.01 5.495 1.01 5.495 0 6 C-0.99 5.67 -1.98 5.34 -3 5 C-3.66 6.98 -4.32 8.96 -5 11 C-5.66 11 -6.32 11 -7 11 C-7 14.63 -7 18.26 -7 22 C-7.66 22.33 -8.32 22.66 -9 23 C-9.33 22.34 -9.66 21.68 -10 21 C-10.66 21.33 -11.32 21.66 -12 22 C-12 21.01 -12 20.02 -12 19 C-12.99 19.99 -13.98 20.98 -15 22 C-12.34160899 13.15172797 -7.59250638 5.37030939 0 0 Z " fill="#1C3A74" transform="translate(39,154)"/>
<path d="M0 0 C0.66 0 1.32 0 2 0 C2 0.66 2 1.32 2 2 C2.66 2 3.32 2 4 2 C5.36176922 3.64351457 6.68962066 5.31522656 8 7 C11.46403983 10.81873029 11.46403983 10.81873029 16 13 C16 13.66 16 14.32 16 15 C17.25683594 15.33644531 17.25683594 15.33644531 18.5390625 15.6796875 C22.69466083 17.26500605 25.83131891 19.48388486 29.375 22.125 C30.01566406 22.59292969 30.65632813 23.06085938 31.31640625 23.54296875 C32.88265681 24.68843557 34.44204685 25.84327314 36 27 C35.01 27.495 35.01 27.495 34 28 C21.29387556 22.88514845 8.84690078 12.38462394 0 2 C0 1.34 0 0.68 0 0 Z " fill="#388CAE" transform="translate(38,280)"/>
<path d="M0 0 C0.99 -0.33 1.98 -0.66 3 -1 C3 0.32 3 1.64 3 3 C5.97 3.33 8.94 3.66 12 4 C12 4.66 12 5.32 12 6 C14.64 6.66 17.28 7.32 20 8 C20 8.66 20 9.32 20 10 C21.32 10.66 22.64 11.32 24 12 C23.67 13.32 23.34 14.64 23 16 C22.40574219 15.55269531 21.81148437 15.10539062 21.19921875 14.64453125 C12.12091639 8.02287681 2.83285946 3.8903291 -8 1 C-8 0.67 -8 0.34 -8 0 C-4.71303767 -0.79953138 -3.28976808 -1.09658936 0 0 Z " fill="#3B6789" transform="translate(136,145)"/>
<path d="M0 0 C1.25771849 3.77315548 0.55279489 5.65263036 -0.375 9.5 C-2.9624761 21.05503028 -3.13298077 32.22381433 -3 44 C-7.16791522 37.74812717 -7.41681244 31.21286333 -6 24 C-5.67 23.67 -5.34 23.34 -5 23 C-4.33910927 19.51427344 -3.75766005 16.02373145 -3.19335938 12.52148438 C-2.46691973 8.18166617 -1.52810575 4.14771561 0 0 Z " fill="#385178" transform="translate(42,190)"/>
<path d="M0 0 C0 3.29222682 -0.41495585 4.02719653 -2.25 6.625 C-2.66765625 7.23601562 -3.0853125 7.84703125 -3.515625 8.4765625 C-5.29108417 10.29874428 -6.56227457 10.46721877 -9 11 C-9.69937532 12.31647119 -10.36729133 13.65022151 -11 15 C-11.99 15.33 -12.98 15.66 -14 16 C-14 14 -14 14 -12 11.875 C-11.34 11.25625 -10.68 10.6375 -10 10 C-10.99 10 -11.98 10 -13 10 C-13 9.01 -13 8.02 -13 7 C-11.68 6.34 -10.36 5.68 -9 5 C-9.66 4.67 -10.32 4.34 -11 4 C-9.68 3.01 -8.36 2.02 -7 1 C-5.68 1.66 -4.36 2.32 -3 3 C-2.01 2.01 -1.02 1.02 0 0 Z " fill="#12154B" transform="translate(164,255)"/>
<path d="M0 0 C1.32379982 2.64759965 0.70285565 4.30482392 -0.125 7.05859375 C-1.44633494 9.99030564 -3.45408903 12.11332544 -5.66015625 14.421875 C-7.23200144 16.07444876 -7.23200144 16.07444876 -8 19 C-8.99 19 -9.98 19 -11 19 C-11.061875 19.61875 -11.12375 20.2375 -11.1875 20.875 C-12 23 -12 23 -14.5625 24.25 C-15.366875 24.4975 -16.17125 24.745 -17 25 C-15.68469537 21.16758955 -14.11977923 18.77603905 -11.3125 15.875 C-6.81732273 11.00180051 -3.3948502 5.67576518 0 0 Z " fill="#233D67" transform="translate(179,248)"/>
<path d="M0 0 C0.98484375 0.01804688 1.9696875 0.03609375 2.984375 0.0546875 C4.10585937 0.08949219 4.10585937 0.08949219 5.25 0.125 C5.58 2.105 5.91 4.085 6.25 6.125 C1.63 6.125 -2.99 6.125 -7.75 6.125 C-7.75 5.465 -7.75 4.805 -7.75 4.125 C-8.41 3.465 -9.07 2.805 -9.75 2.125 C-6.40060119 0.09941119 -3.88037449 -0.09238987 0 0 Z " fill="#1B1F57" transform="translate(121.75,224.875)"/>
<path d="M0 0 C1.29640378 0.59393382 2.58698839 1.20057989 3.875 1.8125 C4.59429687 2.14894531 5.31359375 2.48539063 6.0546875 2.83203125 C8 4 8 4 10 7 C8.700625 7.20625 7.40125 7.4125 6.0625 7.625 C0.048215 8.79324241 -5.57269455 10.88601014 -11.28491211 13.05517578 C-13.17108603 13.75642089 -15.08413476 14.38448628 -17 15 C-17.66 14.67 -18.32 14.34 -19 14 C-12.375 10 -12.375 10 -9 10 C-9 9.34 -9 8.68 -9 8 C-7.68 8.33 -6.36 8.66 -5 9 C-5 8.34 -5 7.68 -5 7 C-4.030625 6.71125 -3.06125 6.4225 -2.0625 6.125 C1.10664203 5.35785318 1.10664203 5.35785318 2 3 C1.34 3 0.68 3 0 3 C0 2.01 0 1.02 0 0 Z " fill="#2B5C8D" transform="translate(98,136)"/>
<path d="M0 0 C0.33 0 0.66 0 1 0 C1.02712066 1.43739513 1.04645067 2.87493863 1.0625 4.3125 C1.07410156 5.11300781 1.08570313 5.91351563 1.09765625 6.73828125 C1 9 1 9 0 12 C-16.83 12 -33.66 12 -51 12 C-51 11.34 -51 10.68 -51 10 C-34.83 10 -18.66 10 -2 10 C-1.34 6.7 -0.68 3.4 0 0 Z " fill="#395775" transform="translate(138,211)"/>
<path d="M0 0 C1.13116179 3.39348537 0.96678184 4.61626354 0 8 C-0.495 8.763125 -0.99 9.52625 -1.5 10.3125 C-4.08705384 14.94763814 -4 19.73450011 -4 25 C-4.66 25 -5.32 25 -6 25 C-8 22 -8 22 -7.8984375 20.0546875 C-6.17768614 12.88917065 -3.30158326 6.55894888 0 0 Z M2 3 C2.33 3.66 2.66 4.32 3 5 C2.34 4.67 1.68 4.34 1 4 C1.33 3.67 1.66 3.34 2 3 Z " fill="#0C1549" transform="translate(27,171)"/>
<path d="M0 0 C10.75543045 -0.32592213 18.98322266 3.5766247 28 9 C28.33 9.66 28.66 10.32 29 11 C25.65626525 10.44271087 22.96687001 9.64826111 20 8 C20 7.34 20 6.68 20 6 C17.2294096 5.66453392 14.45856036 5.33154158 11.6875 5 C10.50897461 4.85691406 10.50897461 4.85691406 9.30664062 4.7109375 C8.54931641 4.62070313 7.79199219 4.53046875 7.01171875 4.4375 C6.31522217 4.35371094 5.61872559 4.26992187 4.90112305 4.18359375 C2.82064322 3.95193799 2.82064322 3.95193799 0 4 C0 2.68 0 1.36 0 0 Z " fill="#3B8BAF" transform="translate(136,123)"/>
<path d="M0 0 C17.49 0.33 34.98 0.66 53 1 C49.39338934 2.80330533 46.91606575 3.46599103 43 4 C43 3.34 43 2.68 43 2 C28.48 2 13.96 2 -1 2 C-0.67 1.34 -0.34 0.68 0 0 Z " fill="#09063D" transform="translate(86,230)"/>
<path d="M0 0 C1.32 0.33 2.64 0.66 4 1 C3.67 1.66 3.34 2.32 3 3 C4.32 3.33 5.64 3.66 7 4 C5.02580078 4.05607422 5.02580078 4.05607422 3.01171875 4.11328125 C-9.69278862 4.51121819 -9.69278862 4.51121819 -22.00390625 7.4765625 C-24 8 -24 8 -27 7 C-18.61421663 2.00078299 -10.58133302 1.94313749 -1 2 C-0.67 1.34 -0.34 0.68 0 0 Z " fill="#111348" transform="translate(117,162)"/>
<path d="M0 0 C0.99 0.33 1.98 0.66 3 1 C1.71937515 2.7074998 0.38232443 4.37373596 -1 6 C-1.66 6 -2.32 6 -3 6 C-3.226875 6.721875 -3.45375 7.44375 -3.6875 8.1875 C-5.99423404 13.13050152 -9.18220221 15.5911011 -14 18 C-12.68 15.36 -11.36 12.72 -10 10 C-9.34 10 -8.68 10 -8 10 C-7.79375 9.46375 -7.5875 8.9275 -7.375 8.375 C-5.42003056 4.9982346 -2.81776305 2.69525161 0 0 Z " fill="#25476D" transform="translate(147,287)"/>
<path d="M0 0 C0.73863281 0.24105469 1.47726563 0.48210937 2.23828125 0.73046875 C1.61328125 3.16796875 1.61328125 3.16796875 0.23828125 5.73046875 C-1.75457812 6.10412988 -3.75535404 6.4378739 -5.76171875 6.73046875 C-7.19809573 8.68209993 -7.19809573 8.68209993 -7.76171875 10.73046875 C-8.42171875 10.73046875 -9.08171875 10.73046875 -9.76171875 10.73046875 C-10.09171875 11.39046875 -10.42171875 12.05046875 -10.76171875 12.73046875 C-11.42171875 12.40046875 -12.08171875 12.07046875 -12.76171875 11.73046875 C-11.29937955 8.40833405 -9.45365269 6.03732892 -6.94921875 3.41796875 C-6.28277344 2.69996094 -5.61632812 1.98195313 -4.9296875 1.2421875 C-2.76171875 -0.26953125 -2.76171875 -0.26953125 0 0 Z " fill="#264C7B" transform="translate(161.76171875,274.26953125)"/>
<path d="M0 0 C1.29505842 3.88517525 0.23527442 6.52947888 -0.875 10.3125 C-2.17645025 14.84962485 -3.3180666 19.32077613 -4 24 C-4.66 24 -5.32 24 -6 24 C-6.28875 23.195625 -6.5775 22.39125 -6.875 21.5625 C-7.73262568 18.8673532 -7.73262568 18.8673532 -10 18 C-9.505 16.515 -9.505 16.515 -9 15 C-8.34 15 -7.68 15 -7 15 C-5.57181188 12.14362377 -4.32064776 9.21196714 -3.03515625 6.2890625 C-2.07402327 4.16368918 -1.05820155 2.07844071 0 0 Z " fill="#11174C" transform="translate(42,187)"/>
<path d="M0 0 C0.99 0.33 1.98 0.66 3 1 C-12.2704931 11.16584747 -12.2704931 11.16584747 -20 14 C-20.66 13.67 -21.32 13.34 -22 13 C-5.27044025 2.63522013 -5.27044025 2.63522013 0 0 Z " fill="#2B5C85" transform="translate(166,297)"/>
<path d="M0 0 C0.33 0.99 0.66 1.98 1 3 C0.071875 3.391875 -0.85625 3.78375 -1.8125 4.1875 C-4.14316835 5.17282321 -6.42611246 6.20689853 -8.703125 7.3125 C-9.64671875 7.76625 -10.5903125 8.22 -11.5625 8.6875 C-12.89474609 9.34298828 -12.89474609 9.34298828 -14.25390625 10.01171875 C-17.32999083 11.11875915 -19.75535037 11.17628787 -23 11 C-23 10.34 -23 9.68 -23 9 C-22.33613281 8.81824219 -21.67226562 8.63648438 -20.98828125 8.44921875 C-16.2395234 7.09738257 -12.12612466 5.79120197 -8 3 C-4.31578947 1 -4.31578947 1 -2 1 C-1.34 0.67 -0.68 0.34 0 0 Z " fill="#191948" transform="translate(141,259)"/>
<path d="M0 0 C-2.33333333 2.33333333 -4.66666667 4.66666667 -7 7 C-9.125 6.625 -9.125 6.625 -11 6 C-9.35 4.68 -7.7 3.36 -6 2 C-6.556875 2.33 -7.11375 2.66 -7.6875 3 C-10.30284522 4.1309601 -12.1806646 4.15662974 -15 4 C-14 1 -14 1 -12.36328125 -0.01953125 C-7.54739971 -1.88167211 -4.88626646 -2.32097657 0 0 Z " fill="#204F7F" transform="translate(178,290)"/>
<path d="M0 0 C0.74056641 0.23396484 1.48113281 0.46792969 2.24414062 0.70898438 C4.05933405 1.28281972 5.87352006 1.85984011 7.6875 2.4375 C7.6875 3.0975 7.6875 3.7575 7.6875 4.4375 C2.37722787 3.98907702 -2.26610108 3.22476629 -7.3125 1.4375 C-10.30045681 0.7126986 -13.30297846 0.06615561 -16.3125 -0.5625 C-16.3125 -1.2225 -16.3125 -1.8825 -16.3125 -2.5625 C-10.81101405 -4.39632865 -5.34717258 -1.70593441 0 0 Z " fill="#297EB3" transform="translate(128.3125,131.5625)"/>
<path d="M0 0 C0.33 0.66 0.66 1.32 1 2 C-0.39215709 4.04425682 -1.78858367 6.08537555 -3.1875 8.125 C-3.57486328 8.69476563 -3.96222656 9.26453125 -4.36132812 9.8515625 C-7.04656375 13.75735977 -9.91822713 17.39821217 -13 21 C-14.32 20.67 -15.64 20.34 -17 20 C-16.319375 19.38125 -15.63875 18.7625 -14.9375 18.125 C-12.4271829 15.63601704 -10.4900968 12.91764738 -8.5 10 C-5.93117888 6.23389463 -3.36788098 3.06170998 0 0 Z " fill="#203362" transform="translate(196,265)"/>
<path d="M0 0 C0.556875 0.474375 1.11375 0.94875 1.6875 1.4375 C4.18346074 3.12395996 6.0446237 3.58953107 9 4 C9 4.66 9 5.32 9 6 C9.66 6 10.32 6 11 6 C11.66 8.97 12.32 11.94 13 15 C10.95880212 13.38405168 8.95927063 11.7143618 7 10 C7 9.34 7 8.68 7 8 C6.01 8.33 5.02 8.66 4 9 C2.47551369 6.0173094 1.06059933 3.181798 0 0 Z " fill="#151456" transform="translate(59,254)"/>
<path d="M0 0 C0.33 0 0.66 0 1 0 C1.0291544 3.39581516 1.04685068 6.79159786 1.0625 10.1875 C1.07087891 11.14720703 1.07925781 12.10691406 1.08789062 13.09570312 C1.09111328 14.02705078 1.09433594 14.95839844 1.09765625 15.91796875 C1.10289307 16.77156982 1.10812988 17.6251709 1.11352539 18.50463867 C0.99579323 21.09246747 0.57107044 23.47661953 0 26 C-2.75078884 26.91692961 -4.35948913 27.10886083 -7.1875 27.0625 C-9.0746875 27.0315625 -9.0746875 27.0315625 -11 27 C-10.401875 26.71125 -9.80375 26.4225 -9.1875 26.125 C-6.80672208 24.95257974 -6.80672208 24.95257974 -4 23 C-3.01 23 -2.02 23 -1 23 C-1.66 21.68 -2.32 20.36 -3 19 C-2.01 18.67 -1.02 18.34 0 18 C-0.17402344 17.48953125 -0.34804687 16.9790625 -0.52734375 16.453125 C-1.16767376 13.12975935 -0.84312439 10.11749265 -0.5625 6.75 C-0.40974609 4.85507813 -0.40974609 4.85507813 -0.25390625 2.921875 C-0.17011719 1.95765625 -0.08632812 0.9934375 0 0 Z " fill="#3991BF" transform="translate(207,206)"/>
<path d="M0 0 C8.20037957 0.37274453 15.88091948 4.27080455 22 9.625 C22.66 10.40875 23.32 11.1925 24 12 C24.763125 12.763125 25.52625 13.52625 26.3125 14.3125 C26.869375 14.869375 27.42625 15.42625 28 16 C27.67 16.66 27.34 17.32 27 18 C26.13375 17.01 25.2675 16.02 24.375 15 C20.90784532 11.51866473 17.17595057 9.10055105 12.9375 6.6875 C12.3482373 6.35041016 11.75897461 6.01332031 11.15185547 5.66601562 C7.53396546 3.66673507 3.95617488 2.18625031 0 1 C0 0.67 0 0.34 0 0 Z " fill="#464568" transform="translate(124,168)"/>
<path d="M0 0 C1.61455078 -0.03867188 1.61455078 -0.03867188 3.26171875 -0.078125 C6.72641191 0.29451805 8.58983334 1.09288726 11.3125 3.25 C11.625 6.4375 11.625 6.4375 11.3125 9.25 C9.3125 6.25 9.3125 6.25 8.3125 4.25 C5.4859583 3.28802898 2.73420651 3.07399963 -0.234375 2.93359375 C-1.07871094 2.89169922 -1.92304687 2.84980469 -2.79296875 2.80664062 C-3.66566406 2.76732422 -4.53835937 2.72800781 -5.4375 2.6875 C-6.32566406 2.64431641 -7.21382813 2.60113281 -8.12890625 2.55664062 C-10.31495963 2.45086385 -12.50112089 2.34877454 -14.6875 2.25 C-14.6875 1.92 -14.6875 1.59 -14.6875 1.25 C-9.78397916 0.48082026 -4.9645679 0.11283109 0 0 Z " fill="#345D84" transform="translate(126.6875,205.75)"/>
<path d="M0 0 C9.80245544 -0.72194844 17.08475901 0.91445585 26 5 C22.68737889 5.85696068 19.37992169 6.46228519 16 7 C16.33 6.34 16.66 5.68 17 5 C15.50256881 3.50256881 14.01175761 3.66797307 11.9375 3.4375 C10.638125 3.293125 9.33875 3.14875 8 3 C8 2.34 8 1.68 8 1 C5.36 1 2.72 1 0 1 C0 0.67 0 0.34 0 0 Z " fill="#131648" transform="translate(112,152)"/>
<path d="M0 0 C-4.77105802 2.67179249 -9.53911054 4 -15 4 C-15 4.66 -15 5.32 -15 6 C-18.96 6.99 -22.92 7.98 -27 9 C-27 8.34 -27 7.68 -27 7 C-27.99 6.67 -28.98 6.34 -30 6 C-27.51336896 5.30374331 -25.20565798 4.91173978 -22.625 4.625 C-19.00428606 4.18541395 -19.00428606 4.18541395 -16.0625 2.5 C-10.9586967 0.00017797 -5.65382791 -0.17668212 0 0 Z " fill="#1E6098" transform="translate(88,130)"/>
<path d="M0 0 C2.875 0.1875 2.875 0.1875 6 1 C7.375 3.5625 7.375 3.5625 8 6 C7.01 6.495 7.01 6.495 6 7 C5.34 6.67 4.68 6.34 4 6 C4 6.99 4 7.98 4 9 C2.68 8.67 1.36 8.34 0 8 C-0.33 8.66 -0.66 9.32 -1 10 C-0.67 6.7 -0.34 3.4 0 0 Z " fill="#0E1E57" transform="translate(186,227)"/>
<path d="M0 0 C1.32 0 2.64 0 4 0 C4.02688151 1.64574566 4.04634123 3.29161413 4.0625 4.9375 C4.07410156 5.85402344 4.08570312 6.77054688 4.09765625 7.71484375 C4 10 4 10 3 11 C1.00041636 11.04080783 -1.00045254 11.04254356 -3 11 C-3.73080266 9.02253397 -4.39421747 7.01927511 -5 5 C-4.67 4.34 -4.34 3.68 -4 3 C-3.34 3.33 -2.68 3.66 -2 4 C-2 5.32 -2 6.64 -2 8 C-1.01 7.67 -0.02 7.34 1 7 C0.67 4.69 0.34 2.38 0 0 Z " fill="#17143C" transform="translate(81,231)"/>
<path d="M0 0 C0.66 0 1.32 0 2 0 C3.21752381 1.4807722 4.43263372 2.96373977 5.625 4.46484375 C7.4686085 6.52319074 9.55836862 7.74430386 12 9 C12.66 8.34 13.32 7.68 14 7 C14 7.99 14 8.98 14 10 C14.66 10.33 15.32 10.66 16 11 C15.01 11 14.02 11 13 11 C13.33 12.65 13.66 14.3 14 16 C12.87890549 14.87890549 11.75850261 13.7571147 10.640625 12.6328125 C9.41106937 11.4091119 8.16943029 10.19753227 6.921875 8.9921875 C5.84679687 7.94417969 5.84679687 7.94417969 4.75 6.875 C4.06421875 6.21242188 3.3784375 5.54984375 2.671875 4.8671875 C1 3 1 3 0 0 Z " fill="#2A2958" transform="translate(64,262)"/>
<path d="M0 0 C0 3 0 3 -1 5 C-0.67 5.99 -0.34 6.98 0 8 C-0.66 8.66 -1.32 9.32 -2 10 C-2.763125 9.814375 -3.52625 9.62875 -4.3125 9.4375 C-7.83624489 8.86386711 -9.16718672 9.97656194 -12 12 C-10.79950715 8.39852146 -9.5666278 7.66295787 -6.5625 5.4375 C-4.22615683 3.69368046 -2.06251649 2.06251649 0 0 Z " fill="#272853" transform="translate(149,250)"/>
<path d="M0 0 C1.32 0 2.64 0 4 0 C2.49087042 4.98012761 -0.55661849 8.24259942 -4 12 C-4 9 -4 9 -3 7 C-3.99 7.66 -4.98 8.32 -6 9 C-5.67 7.68 -5.34 6.36 -5 5 C-4.34 5 -3.68 5 -3 5 C-2.5359375 4.0409375 -2.5359375 4.0409375 -2.0625 3.0625 C-1 1 -1 1 0 0 Z " fill="#242851" transform="translate(166,250)"/>
<path d="M0 0 C0.48210937 0.3609375 0.96421875 0.721875 1.4609375 1.09375 C2.09257813 1.5578125 2.72421875 2.021875 3.375 2.5 C4.00148438 2.9640625 4.62796875 3.428125 5.2734375 3.90625 C6.94094613 5.17838101 6.94094613 5.17838101 9 5 C9.66 3.68 10.32 2.36 11 1 C11.33 1.99 11.66 2.98 12 4 C10.35 5.65 8.7 7.3 7 9 C4.13998967 7.71792641 1.92960588 6.50848764 0 4 C0 2.68 0 1.36 0 0 Z " fill="#11123D" transform="translate(106,306)"/>
<path d="M0 0 C1.32 0 2.64 0 4 0 C3.34 1.32 2.68 2.64 2 4 C1.34 4 0.68 4 0 4 C0 4.66 0 5.32 0 6 C2.31 4.02 4.62 2.04 7 0 C7.66 0.33 8.32 0.66 9 1 C6.03 3.97 3.06 6.94 0 10 C-2 7 -2 7 -2 3 C-1.34 3 -0.68 3 0 3 C0 2.01 0 1.02 0 0 Z " fill="#2A2B58" transform="translate(150,265)"/>
<path d="M0 0 C0.33 0.99 0.66 1.98 1 3 C1.66 3 2.32 3 3 3 C3.69965443 4.26418246 4.38434763 5.53665402 5.0625 6.8125 C5.63677734 7.87404297 5.63677734 7.87404297 6.22265625 8.95703125 C7 11 7 11 6 14 C4.35 14 2.7 14 1 14 C1.20625 12.906875 1.4125 11.81375 1.625 10.6875 C2.40346525 6.9161599 2.40346525 6.9161599 0 4 C0 2.68 0 1.36 0 0 Z " fill="#3EB7E1" transform="translate(191,162)"/>
<path d="M0 0 C4.49699606 3.65461928 8.62848394 7.25880554 12 12 C11.67 12.99 11.34 13.98 11 15 C6.82616605 11.07168569 3.10605574 6.83520017 0 2 C0 1.34 0 0.68 0 0 Z " fill="#1D577A" transform="translate(69,279)"/>
<path d="M0 0 C1.65 0 3.3 0 5 0 C5 0.66 5 1.32 5 2 C7.31 2.66 9.62 3.32 12 4 C12 4.66 12 5.32 12 6 C8.37 6 4.74 6 1 6 C0.67 4.02 0.34 2.04 0 0 Z " fill="#0F1C52" transform="translate(19,197)"/>
<path d="M0 0 C0.66 0 1.32 0 2 0 C2 0.66 2 1.32 2 2 C2.66 2 3.32 2 4 2 C4 5.3 4 8.6 4 12 C2.66666667 12 1.33333333 12 0 12 C0 8.04 0 4.08 0 0 Z " fill="#225891" transform="translate(32,210)"/>
<path d="M0 0 C2.20643884 3.30965826 2.27773365 4.499206 2.37890625 8.3671875 C2.41306641 9.41777344 2.44722656 10.46835938 2.48242188 11.55078125 C2.50884766 12.64777344 2.53527344 13.74476563 2.5625 14.875 C2.62268687 17.03916606 2.68636561 19.20323845 2.75390625 21.3671875 C2.77783447 22.32737793 2.8017627 23.28756836 2.82641602 24.27685547 C2.99577702 26.93375091 3.41473029 29.40594313 4 32 C3.01 32 2.02 32 1 32 C0.67 21.44 0.34 10.88 0 0 Z " fill="#3893C6" transform="translate(192,200)"/>
<path d="M0 0 C10.46021625 8.53895204 10.46021625 8.53895204 14 14 C13.67 14.99 13.34 15.98 13 17 C12.34 17 11.68 17 11 17 C10.69707031 16.39671875 10.39414063 15.7934375 10.08203125 15.171875 C7.55242247 10.34615979 5.41032021 7.30774015 1 4 C0.359375 1.89453125 0.359375 1.89453125 0 0 Z " fill="#3D7796" transform="translate(87,299)"/>
<path d="M0 0 C3.3 0 6.6 0 10 0 C9.67 1.32 9.34 2.64 9 4 C6.98177083 3.96744792 4.96354167 3.93489583 2.9453125 3.90234375 C0.91814596 3.87350758 0.91814596 3.87350758 -1 5 C-0.67 3.35 -0.34 1.7 0 0 Z " fill="#3276AD" transform="translate(18,204)"/>
<path d="M0 0 C0 0.66 0 1.32 0 2 C-1.2065625 2.433125 -1.2065625 2.433125 -2.4375 2.875 C-5.1326468 3.73262568 -5.1326468 3.73262568 -6 6 C-10.29 5.67 -14.58 5.34 -19 5 C-19 4.34 -19 3.68 -19 3 C-18.26394531 2.95101562 -17.52789062 2.90203125 -16.76953125 2.8515625 C-15.79371094 2.77679688 -14.81789063 2.70203125 -13.8125 2.625 C-12.84957031 2.55539063 -11.88664062 2.48578125 -10.89453125 2.4140625 C-6.99172915 1.85576692 -3.95200759 0 0 0 Z " fill="#2A689C" transform="translate(128,137)"/>
<path d="M0 0 C-0.99 0 -1.98 0 -3 0 C-3 0.66 -3 1.32 -3 2 C-8.69398894 4.09570426 -13.95198929 5.45018084 -20 6 C-17.33273284 3.33273284 -14.66490592 2.59672782 -11.125 1.3125 C-9.89007813 0.85488281 -8.65515625 0.39726563 -7.3828125 -0.07421875 C-4.24372203 -0.93330009 -2.93736498 -1.21775181 0 0 Z " fill="#397396" transform="translate(92,122)"/>
<path d="M0 0 C2.45823172 3.68734758 3.01242616 6.69699971 4 11 C4.66 11 5.32 11 6 11 C7.6875 13.3125 7.6875 13.3125 9 16 C8.67 16.99 8.34 17.98 8 19 C3.76043408 14.44639216 0.98821002 8.86476562 -1 3 C-0.67 2.01 -0.34 1.02 0 0 Z " fill="#4695B0" transform="translate(22,251)"/>
<path d="M0 0 C-0.42335385 6.49142565 -2.91099799 11.33492989 -6 17 C-6.33 16.34 -6.66 15.68 -7 15 C-6.505 13.906875 -6.01 12.81375 -5.5 11.6875 C-3.90986788 7.7784252 -4.13739527 6.88172126 -5 3 C-3.40083326 0.79162689 -2.76966516 0 0 0 Z " fill="#2A2851" transform="translate(177,233)"/>
<path d="M0 0 C1.4540625 0.0309375 1.4540625 0.0309375 2.9375 0.0625 C3.2675 1.0525 3.5975 2.0425 3.9375 3.0625 C1.6275 3.0625 -0.6825 3.0625 -3.0625 3.0625 C-3.0625 5.7025 -3.0625 8.3425 -3.0625 11.0625 C-5.3725 10.7325 -7.6825 10.4025 -10.0625 10.0625 C-6.1875 9.0625 -6.1875 9.0625 -5.0625 9.0625 C-4.918125 7.763125 -4.77375 6.46375 -4.625 5.125 C-4.06477273 0.08295455 -4.06477273 0.08295455 0 0 Z " fill="#34345C" transform="translate(144.0625,214.9375)"/>
<path d="M0 0 C0.33 1.32 0.66 2.64 1 4 C2.04800781 3.76603516 2.04800781 3.76603516 3.1171875 3.52734375 C4.02726563 3.33269531 4.93734375 3.13804687 5.875 2.9375 C6.77992188 2.74027344 7.68484375 2.54304688 8.6171875 2.33984375 C11 2 11 2 13 3 C8.46298506 4.45184478 4.81938524 5.23509196 0 5 C0 5.66 0 6.32 0 7 C-1.32 6.67 -2.64 6.34 -4 6 C-3.67 5.01 -3.34 4.02 -3 3 C-2.34 3 -1.68 3 -1 3 C-0.67 2.01 -0.34 1.02 0 0 Z " fill="#266EA0" transform="translate(132,307)"/>
<path d="M0 0 C0.33 0.66 0.66 1.32 1 2 C0.05016642 3.50539661 -0.91011891 5.00420347 -1.875 6.5 C-2.40867188 7.3353125 -2.94234375 8.170625 -3.4921875 9.03125 C-3.98976562 9.6809375 -4.48734375 10.330625 -5 11 C-5.66 11 -6.32 11 -7 11 C-7 11.66 -7 12.32 -7 13 C-8.32 13.33 -9.64 13.66 -11 14 C-8.1064262 9.03782876 -5.24141138 4.88796043 -1 1 C-0.67 0.67 -0.34 0.34 0 0 Z " fill="#100E3F" transform="translate(157,242)"/>
<path d="M0 0 C0.66 0 1.32 0 2 0 C1.938125 0.94875 1.87625 1.8975 1.8125 2.875 C1.874375 3.90625 1.93625 4.9375 2 6 C2.99 6.66 3.98 7.32 5 8 C5.1875 10.625 5.1875 10.625 5 13 C4.5875 12.34 4.175 11.68 3.75 11 C3.1725 10.34 2.595 9.68 2 9 C0.68 9 -0.64 9 -2 9 C-2.20140476 5.37471432 -1.85776765 3.13498292 0 0 Z " fill="#3FADDD" transform="translate(202,191)"/>
<path d="M0 0 C4.0081803 3.67416528 6.52591615 7.14346504 9 12 C9 12.66 9 13.32 9 14 C8.01 14 7.02 14 6 14 C3 8.25 3 8.25 3 6 C2.34 5.67 1.68 5.34 1 5 C0.375 2.4375 0.375 2.4375 0 0 Z " fill="#282B52" transform="translate(164,176)"/>
<path d="M0 0 C0.33 0 0.66 0 1 0 C1.50249143 2.29112166 2.00192117 4.58291501 2.5 6.875 C2.7784375 8.15117187 3.056875 9.42734375 3.34375 10.7421875 C4 14 4 14 4 16 C3.34 16 2.68 16 2 16 C1.46530198 14.27507022 0.94780825 12.544802 0.4375 10.8125 C0.14746094 9.84957031 -0.14257812 8.88664063 -0.44140625 7.89453125 C-1.02461026 4.87247412 -0.81178385 2.94070045 0 0 Z " fill="#3B86A4" transform="translate(17,232)"/>
<path d="M0 0 C3.62174279 3.62174279 4.87956218 9.03284894 5.1875 14.0625 C5.125625 14.701875 5.06375 15.34125 5 16 C4.01 16 3.02 16 2 16 C0.61470179 10.54538831 -0.2396943 5.63281599 0 0 Z " fill="#2A2A4E" transform="translate(173,190)"/>
<path d="M0 0 C0.33 0.66 0.66 1.32 1 2 C0.01 2.495 0.01 2.495 -1 3 C-1.46651207 5.12576782 -1.46651207 5.12576782 -1.625 7.5625 C-1.69976562 8.38878906 -1.77453125 9.21507812 -1.8515625 10.06640625 C-1.90054688 10.70449219 -1.94953125 11.34257812 -2 12 C-1.01 12.33 -0.02 12.66 1 13 C1 13.66 1 14.32 1 15 C-2.16115776 13.63016497 -2.9927092 13.0109362 -5 10 C-4.77603583 3.72900336 -4.77603583 3.72900336 -1.9375 1.0625 C-0.9784375 0.5365625 -0.9784375 0.5365625 0 0 Z " fill="#375674" transform="translate(91,200)"/>
<path d="M0 0 C4.92908146 3.87792288 8.5423711 7.76116833 12 13 C11.67 13.66 11.34 14.32 11 15 C8.18036283 13.59018141 7.53335909 11.31651136 6.08203125 8.63671875 C4.71662751 6.57136074 3.18966983 6.05708199 1 5 C0.25 2.375 0.25 2.375 0 0 Z " fill="#4491AF" transform="translate(178,144)"/>
<path d="M0 0 C0.99 0 1.98 0 3 0 C4.98362069 2.91708924 4.9876191 4.12380904 4.625 7.75 C4.41875 8.8225 4.2125 9.895 4 11 C2.68 10.34 1.36 9.68 0 9 C0 6.03 0 3.06 0 0 Z " fill="#22366E" transform="translate(40,179)"/>
<path d="M0 0 C0.99 0.33 1.98 0.66 3 1 C-0.57851409 5.77135213 -3.68572797 8.29076328 -9 11 C-7.59155282 7.78475695 -5.89655214 5.67816132 -3.375 3.25 C-2.74335937 2.63640625 -2.11171875 2.0228125 -1.4609375 1.390625 C-0.73777344 0.70226562 -0.73777344 0.70226562 0 0 Z " fill="#274D78" transform="translate(45,146)"/>
<path d="M0 0 C3 1 3 1 6 3 C6.33 2.34 6.66 1.68 7 1 C7.33 2.32 7.66 3.64 8 5 C6.68 5 5.36 5 4 5 C4 5.66 4 6.32 4 7 C3.01 7.33 2.02 7.66 1 8 C0.17361624 5.10765685 0 3.11257569 0 0 Z " fill="#235A93" transform="translate(72,144)"/>
<path d="M0 0 C1.14023098 3.42069294 1.12770913 4.61687262 0 8 C-2.5625 10.8125 -2.5625 10.8125 -5 13 C-4.54554036 11.58208592 -4.08625056 10.16571954 -3.625 8.75 C-3.24214844 7.56664062 -3.24214844 7.56664062 -2.8515625 6.359375 C-2.04826333 4.13372042 -1.10288338 2.09068328 0 0 Z M2 3 C2.33 3.66 2.66 4.32 3 5 C2.34 4.67 1.68 4.34 1 4 C1.33 3.67 1.66 3.34 2 3 Z " fill="#0F1E53" transform="translate(27,171)"/>
<path d="M0 0 C1.65 0 3.3 0 5 0 C4.625 2.4375 4.625 2.4375 4 5 C3.01 5.495 3.01 5.495 2 6 C1.67 5.34 1.34 4.68 1 4 C1 5.98 1 7.96 1 10 C-1.5654594 7.4345406 -1.54046087 5.52313332 -2 2 C-1.34 2 -0.68 2 0 2 C0 1.34 0 0.68 0 0 Z " fill="#27275B" transform="translate(50,233)"/>
<path d="M0 0 C0.53625 0.226875 1.0725 0.45375 1.625 0.6875 C0.635 1.0175 -0.355 1.3475 -1.375 1.6875 C-2.58382096 3.68766466 -2.58382096 3.68766466 -3.375 5.6875 C-5.025 5.6875 -6.675 5.6875 -8.375 5.6875 C-8.375 4.6975 -8.375 3.7075 -8.375 2.6875 C-2.95961538 -0.38942308 -2.95961538 -0.38942308 0 0 Z " fill="#1C5891" transform="translate(64.375,138.3125)"/>
<path d="M0 0 C1.98362069 2.91708924 1.9876191 4.12380904 1.625 7.75 C1.41875 8.8225 1.2125 9.895 1 11 C-1.475 10.01 -1.475 10.01 -4 9 C-3.34 8.67 -2.68 8.34 -2 8 C-2 7.34 -2 6.68 -2 6 C-2.66 5.67 -3.32 5.34 -4 5 C-3.01 5 -2.02 5 -1 5 C-0.67 3.35 -0.34 1.7 0 0 Z " fill="#38B7E8" transform="translate(47,275)"/>
<path d="M0 0 C1.32 0.33 2.64 0.66 4 1 C4 1.66 4 2.32 4 3 C4.763125 3.268125 5.52625 3.53625 6.3125 3.8125 C8.87380884 4.94424112 10.19692938 5.91223401 12 8 C8.09545042 8 5.50625686 6.65750324 2 5 C1.34 4.34 0.68 3.68 0 3 C0 2.01 0 1.02 0 0 Z " fill="#13154A" transform="translate(76,255)"/>
<path d="M0 0 C0.66 0 1.32 0 2 0 C5.42857143 7.28571429 5.42857143 7.28571429 5 12 C2.26629955 9.63907689 1.08902355 7.43461272 0 4 C0 2.68 0 1.36 0 0 Z " fill="#222147" transform="translate(63,232)"/>
<path d="M0 0 C5.7607103 1.29322068 9.33195882 3.37988643 14 7 C13.01 7.495 13.01 7.495 12 8 C9.43359375 6.85546875 9.43359375 6.85546875 6.4375 5.1875 C4.95056641 4.37345703 4.95056641 4.37345703 3.43359375 3.54296875 C1 2 1 2 0 0 Z " fill="#3B82A2" transform="translate(60,300)"/>
<path d="M0 0 C1.66666667 0 3.33333333 0 5 0 C4.67 2.31 4.34 4.62 4 7 C3.01 7 2.02 7 1 7 C0.67 4.69 0.34 2.38 0 0 Z " fill="#2F98C8" transform="translate(18,232)"/>
<path d="M0 0 C0.66 0.33 1.32 0.66 2 1 C-3.94 6.445 -3.94 6.445 -10 12 C-10 8.28053558 -9.11128458 7.59485764 -6.6875 4.875 C-6.07261719 4.17117187 -5.45773438 3.46734375 -4.82421875 2.7421875 C-3 1 -3 1 0 0 Z " fill="#3B5271" transform="translate(68,156)"/>
<path d="M0 0 C2.31 0.33 4.62 0.66 7 1 C3.86875441 2.63982293 0.6857317 3.95155299 -2.625 5.1875 C-3.58664063 5.55230469 -4.54828125 5.91710937 -5.5390625 6.29296875 C-8 7 -8 7 -10 6 C-3.375 2 -3.375 2 0 2 C0 1.34 0 0.68 0 0 Z " fill="#406285" transform="translate(89,144)"/>
<path d="M0 0 C0.66 0.33 1.32 0.66 2 1 C0.4169423 5.2742558 -2.50568404 7.26531794 -6 10 C-6.66 9.67 -7.32 9.34 -8 9 C-6.47793991 6.37098712 -5.15634036 4.15634036 -3 2 C-2.67 2.33 -2.34 2.66 -2 3 C-1.34 2.01 -0.68 1.02 0 0 Z " fill="#163F6B" transform="translate(141,295)"/>
<path d="M0 0 C0.66 0 1.32 0 2 0 C2 0.99 2 1.98 2 3 C2.99 3.33 3.98 3.66 5 4 C2.69 5.65 0.38 7.3 -2 9 C-1.51421457 5.87709365 -1.0013988 3.00419641 0 0 Z " fill="#182A6A" transform="translate(186,235)"/>
<path d="M0 0 C1.48484412 0.39595843 2.9628831 0.81750706 4.4375 1.25 C5.26121094 1.48203125 6.08492187 1.7140625 6.93359375 1.953125 C9 3 9 3 9.78515625 5.109375 C9.85605469 5.73328125 9.92695313 6.3571875 10 7 C8.35 6.67 6.7 6.34 5 6 C4.67 5.01 4.34 4.02 4 3 C1.99983534 1.79117904 1.99983534 1.79117904 0 1 C0 0.67 0 0.34 0 0 Z " fill="#13143D" transform="translate(146,162)"/>
<path d="M0 0 C0.99 0.33 1.98 0.66 3 1 C2.67 2.32 2.34 3.64 2 5 C0.125 5.625 0.125 5.625 -2 6 C-2.66 5.34 -3.32 4.68 -4 4 C-2.68 2.68 -1.36 1.36 0 0 Z M3 2 C5 3 5 3 5 3 Z " fill="#2C5F8F" transform="translate(50,141)"/>
<path d="M0 0 C2.475 0.495 2.475 0.495 5 1 C5 1.66 5 2.32 5 3 C6.32 3.66 7.64 4.32 9 5 C6.36 5.33 3.72 5.66 1 6 C0.67 4.02 0.34 2.04 0 0 Z " fill="#3396C7" transform="translate(151,128)"/>
<path d="M0 0 C0.33 1.98 0.66 3.96 1 6 C-1.31 6.33 -3.62 6.66 -6 7 C-6 4 -6 4 -4.125 1.8125 C-2 0 -2 0 0 0 Z " fill="#1D5793" transform="translate(158,281)"/>
<path d="M0 0 C0.66 0 1.32 0 2 0 C1.67 5.61 1.34 11.22 1 17 C0.67 17 0.34 17 0 17 C-0.77313045 11.0885256 -1.14819277 5.8685408 0 0 Z " fill="#171142" transform="translate(77,216)"/>
<path d="M0 0 C0 1.66666667 0 3.33333333 0 5 C-2.3125 5.6875 -2.3125 5.6875 -5 6 C-6.8125 4.5625 -6.8125 4.5625 -8 3 C-7.67 2.34 -7.34 1.68 -7 1 C-6.401875 1.20625 -5.80375 1.4125 -5.1875 1.625 C-2.71549154 2.30671915 -2.71549154 2.30671915 0 0 Z " fill="#276489" transform="translate(99,210)"/>
<path d="M0 0 C0.33 0 0.66 0 1 0 C1 5.28 1 10.56 1 16 C-1.85212766 13.14787234 -1.73901015 10.98009518 -2 7 C-1.52944399 4.54740506 -0.82239721 2.37043901 0 0 Z " fill="#171441" transform="translate(83,196)"/>
<path d="M0 0 C0.99 0 1.98 0 3 0 C3 0.66 3 1.32 3 2 C4.32 2.66 5.64 3.32 7 4 C6.67 5.32 6.34 6.64 6 8 C1.2 4.55384615 1.2 4.55384615 0.1875 1.75 C0.125625 1.1725 0.06375 0.595 0 0 Z " fill="#30648D" transform="translate(153,153)"/>
<path d="M0 0 C-3.58727128 2.08351615 -7.20694042 2.80141379 -11.25 3.625 C-13.14492187 4.01558594 -13.14492187 4.01558594 -15.078125 4.4140625 C-16.04234375 4.60742188 -17.0065625 4.80078125 -18 5 C-16.67193192 2.34386384 -15.77596622 2.06767931 -13 1 C-8.61682405 0.30425779 -4.44304258 -0.13884508 0 0 Z " fill="#226AA3" transform="translate(88,130)"/>
<path d="M0 0 C0.33 0.66 0.66 1.32 1 2 C6.61 2 12.22 2 18 2 C18 2.66 18 3.32 18 4 C12.06 4 6.12 4 0 4 C-0.33 3.34 -0.66 2.68 -1 2 C-0.67 1.34 -0.34 0.68 0 0 Z " fill="#2D78AF" transform="translate(104,118)"/>
<path d="M0 0 C3.99926986 2.97088618 6.92118304 6.12948725 10 10 C9.01 10 8.02 10 7 10 C7 9.34 7 8.68 7 8 C6.01 8.33 5.02 8.66 4 9 C2.47551369 6.0173094 1.06059933 3.181798 0 0 Z " fill="#0F0D41" transform="translate(59,254)"/>
<path d="M0 0 C0.66 0.33 1.32 0.66 2 1 C2 3.31 2 5.62 2 8 C1.01 7.67 0.02 7.34 -1 7 C-2.1875 3.9375 -2.1875 3.9375 -3 1 C-2.01 0.67 -1.02 0.34 0 0 Z " fill="#3CB8E0" transform="translate(30,259)"/>
<path d="M0 0 C2.64 0 5.28 0 8 0 C8 1.32 8 2.64 8 4 C5.69 4 3.38 4 1 4 C0.67 2.68 0.34 1.36 0 0 Z " fill="#2978B1" transform="translate(128,211)"/>
<path d="M0 0 C5.75 -0.125 5.75 -0.125 8 1 C8 1.66 8 2.32 8 3 C6.9275 2.979375 5.855 2.95875 4.75 2.9375 C1.85209576 2.9857984 -0.28612141 3.13155885 -3 4 C-2.67 3.34 -2.34 2.68 -2 2 C-1.34 2 -0.68 2 0 2 C0 1.34 0 0.68 0 0 Z " fill="#42698B" transform="translate(92,200)"/>
<path d="M0 0 C3.67882073 3.28466137 5.75150101 6.66360908 8 11 C8 11.66 8 12.32 8 13 C7.34 13 6.68 13 6 13 C3.95830515 10.09451118 3 8.59857954 3 5 C2.34 5 1.68 5 1 5 C0.67 3.35 0.34 1.7 0 0 Z " fill="#4597AD" transform="translate(191,160)"/>
<path d="M0 0 C1.65 1.65 3.3 3.3 5 5 C4.67 5.66 4.34 6.32 4 7 C3.01 7 2.02 7 1 7 C1 7.66 1 8.32 1 9 C0.34 9 -0.32 9 -1 9 C-0.67 6.03 -0.34 3.06 0 0 Z " fill="#339FCD" transform="translate(81,295)"/>
<path d="M0 0 C2.93200474 2.85276137 5.64315404 5.65079784 8 9 C4.21304827 8.4590069 2.37254028 6.96567536 0 4 C0 2.68 0 1.36 0 0 Z " fill="#366587" transform="translate(61,270)"/>
<path d="M0 0 C0.33 0 0.66 0 1 0 C0.67 2.31 0.34 4.62 0 7 C0.99 6.67 1.98 6.34 3 6 C3.33 6.66 3.66 7.32 4 8 C3.06553465 10.03144641 2.06775224 12.03533587 1 14 C0 11 0 11 1 8 C0.34 8 -0.32 8 -1 8 C-0.67 5.36 -0.34 2.72 0 0 Z " fill="#2A295A" transform="translate(161,225)"/>
<path d="M0 0 C0 0.99 0 1.98 0 3 C-2.75078884 3.91692961 -4.35948913 4.10886083 -7.1875 4.0625 C-9.0746875 4.0315625 -9.0746875 4.0315625 -11 4 C-10.1028125 3.566875 -10.1028125 3.566875 -9.1875 3.125 C-3.11111111 0 -3.11111111 0 0 0 Z " fill="#4287C1" transform="translate(207,229)"/>
<path d="M0 0 C1.32 0 2.64 0 4 0 C3.67 2.64 3.34 5.28 3 8 C1.68 8 0.36 8 -1 8 C-0.67 5.36 -0.34 2.72 0 0 Z " fill="#151445" transform="translate(162,224)"/>
<path d="M0 0 C3.54556225 3.54556225 5.29186565 7.04305957 6 12 C3 11 3 11 2.05078125 9.2578125 C1.80714844 8.55398437 1.56351563 7.85015625 1.3125 7.125 C1.06113281 6.42632812 0.80976563 5.72765625 0.55078125 5.0078125 C0 3 0 3 0 0 Z " fill="#47B3E2" transform="translate(182,170)"/>
<path d="M0 0 C0 4.41102954 -2.19272722 6.16966229 -5.1875 9.25 C-5.785625 9.8275 -6.38375 10.405 -7 11 C-5.72278474 6.00724943 -3.82669043 3.42388092 0 0 Z " fill="#2B3C67" transform="translate(31,165)"/>
<path d="M0 0 C0.99 0.33 1.98 0.66 3 1 C3 1.66 3 2.32 3 3 C1.52295788 4.25227484 0.04172601 5.50166522 -1.4921875 6.68359375 C-3.26762944 8.11764091 -3.26762944 8.11764091 -5 11 C-5.66 11 -6.32 11 -7 11 C-5.54682061 7.6092481 -3.58699688 5.58699688 -1 3 C-0.67 2.01 -0.34 1.02 0 0 Z " fill="#0E0E3E" transform="translate(70,164)"/>
<path d="M0 0 C3.96064107 1.74268207 7.74436549 4.14674729 11 7 C11 7.66 11 8.32 11 9 C6.73709821 8.52634425 4.78451042 6.07761678 2 3 C1.34 2.01 0.68 1.02 0 0 Z " fill="#4A8EAD" transform="translate(165,134)"/>
<path d="M0 0 C0.66 0.99 1.32 1.98 2 3 C1.01 3.33 0.02 3.66 -1 4 C-0.67 2.68 -0.34 1.36 0 0 Z M-5 3 C-3.02 3.495 -3.02 3.495 -1 4 C-1.66 5.32 -2.32 6.64 -3 8 C-3.99 7.01 -4.98 6.02 -6 5 C-5.67 4.34 -5.34 3.68 -5 3 Z " fill="#37B6E6" transform="translate(41,269)"/>
<path d="M0 0 C2.78388975 1.70625501 3.85384206 2.47626739 4.75 5.6875 C4.8325 6.450625 4.915 7.21375 5 8 C3.68 7.67 2.36 7.34 1 7 C0.67 4.69 0.34 2.38 0 0 Z " fill="#2C638D" transform="translate(57,266)"/>
<path d="M0 0 C0.66 0 1.32 0 2 0 C3.32 2.64 4.64 5.28 6 8 C5.01 9.485 5.01 9.485 4 11 C0.71428571 3.57142857 0.71428571 3.57142857 0 0 Z " fill="#3EB3E2" transform="translate(41,261)"/>
<path d="M0 0 C1.2077558 3.62326739 0.54311128 4.64146369 -1 8 C-1.66 8 -2.32 8 -3 8 C-3.33 8.99 -3.66 9.98 -4 11 C-3.38461538 3.49230769 -3.38461538 3.49230769 -1.4375 1 C-0.963125 0.67 -0.48875 0.34 0 0 Z " fill="#26244C" transform="translate(51,192)"/>
<path d="M0 0 C0.66 0.33 1.32 0.66 2 1 C2 1.99 2 2.98 2 4 C1.34 4 0.68 4 0 4 C-0.2475 4.61875 -0.495 5.2375 -0.75 5.875 C-2.20628639 8.35068687 -3.37812506 8.95125002 -6 10 C-4.34832443 6.4213696 -2.21713508 3.25179812 0 0 Z " fill="#0B0A3E" transform="translate(61,175)"/>
<path d="M0 0 C0.66 0.33 1.32 0.66 2 1 C1.79375 1.53625 1.5875 2.0725 1.375 2.625 C0.87130088 5.81509443 1.95228711 7.98782543 3 11 C2.67 11.66 2.34 12.32 2 13 C1.27249212 11.59308393 0.56859647 10.17393978 -0.125 8.75 C-0.51945312 7.96109375 -0.91390625 7.1721875 -1.3203125 6.359375 C-2 4 -2 4 -1.1171875 1.703125 C-0.74851563 1.14109375 -0.37984375 0.5790625 0 0 Z " fill="#2576B0" transform="translate(42,251)"/>
<path d="M0 0 C4.8 3.44615385 4.8 3.44615385 5.8125 6.25 C5.874375 6.8275 5.93625 7.405 6 8 C5.34 8 4.68 8 4 8 C4 7.34 4 6.68 4 6 C3.34 6 2.68 6 2 6 C0.375 3.5 0.375 3.5 -1 1 C-0.67 0.67 -0.34 0.34 0 0 Z " fill="#2F8CBB" transform="translate(90,304)"/>
<path d="M0 0 C0.66 0.33 1.32 0.66 2 1 C0.35 4.3 -1.3 7.6 -3 11 C-3.33 10.34 -3.66 9.68 -4 9 C-2.79149247 5.92379901 -1.47778215 2.9555643 0 0 Z " fill="#0D0D3F" transform="translate(172,240)"/>
<path d="M0 0 C1.32 0 2.64 0 4 0 C4.33 0.99 4.66 1.98 5 3 C4.01 3.495 4.01 3.495 3 4 C1.86649466 6.01669827 1.86649466 6.01669827 1 8 C0.67 5.36 0.34 2.72 0 0 Z " fill="#201E5D" transform="translate(142,219)"/>
<path d="M0 0 C1.20462891 -0.02126953 1.20462891 -0.02126953 2.43359375 -0.04296875 C4.5625 0.1875 4.5625 0.1875 6.5625 2.1875 C4.93925914 2.40912329 3.313779 2.61439803 1.6875 2.8125 C0.33011719 2.98652344 0.33011719 2.98652344 -1.0546875 3.1640625 C-1.84101562 3.17179688 -2.62734375 3.17953125 -3.4375 3.1875 C-4.0975 2.5275 -4.7575 1.8675 -5.4375 1.1875 C-3.84855928 -0.40144072 -2.18948576 0.01751589 0 0 Z " fill="#2B6F9A" transform="translate(93.4375,217.8125)"/>
<path d="M0 0 C-4.5 4 -4.5 4 -9 4 C-8 1 -8 1 -5.625 -0.25 C-3 -1 -3 -1 0 0 Z " fill="#121344" transform="translate(88,158)"/>
<path d="M0 0 C0.99 0.33 1.98 0.66 3 1 C3.33 1.99 3.66 2.98 4 4 C4.66 4.33 5.32 4.66 6 5 C5.67 5.66 5.34 6.32 5 7 C2.525 6.01 2.525 6.01 0 5 C0 4.34 0 3.68 0 3 C-0.66 2.67 -1.32 2.34 -2 2 C-1.34 2 -0.68 2 0 2 C0 1.34 0 0.68 0 0 Z " fill="#3DBAE4" transform="translate(184,155)"/>
<path d="M0 0 C0.33 0 0.66 0 1 0 C1.33 2.64 1.66 5.28 2 8 C3.65 8 5.3 8 7 8 C4 10 4 10 1.3125 9.625 C0.549375 9.41875 -0.21375 9.2125 -1 9 C-0.67 6.03 -0.34 3.06 0 0 Z " fill="#3D3C5E" transform="translate(84,216)"/>
<path d="M0 0 C0.33 0 0.66 0 1 0 C1.66 3.96 2.32 7.92 3 12 C2.01 12 1.02 12 0 12 C0 8.04 0 4.08 0 0 Z " fill="#3888BD" transform="translate(193,220)"/>
<path d="M0 0 C0.33 0 0.66 0 1 0 C1.05422947 1.4370809 1.09289723 2.87475462 1.125 4.3125 C1.14820313 5.11300781 1.17140625 5.91351563 1.1953125 6.73828125 C1 9 1 9 -1 12 C-2.45606519 7.47907032 -1.27032841 4.48351204 0 0 Z " fill="#30536F" transform="translate(138,211)"/>
<path d="M0 0 C2.97 0.33 5.94 0.66 9 1 C6.4345406 3.5654594 4.52313332 3.54046087 1 4 C0.67 2.68 0.34 1.36 0 0 Z " fill="#338CBC" transform="translate(127,121)"/>
<path d="M0 0 C2.86724686 0.57344937 3.8614515 0.8614515 6 3 C3.36 3.33 0.72 3.66 -2 4 C-2 3.34 -2 2.68 -2 2 C-1.34 2 -0.68 2 0 2 C0 1.34 0 0.68 0 0 Z " fill="#144D88" transform="translate(141,300)"/>
<path d="M0 0 C1.17539996 0.92652701 2.34010577 1.86663387 3.5 2.8125 C4.1496875 3.33457031 4.799375 3.85664063 5.46875 4.39453125 C7 6 7 6 7 9 C0.70535714 4.17857143 0.70535714 4.17857143 0 0 Z " fill="#3B6181" transform="translate(69,279)"/>
<path d="M0 0 C0.66 0 1.32 0 2 0 C2.66 2.31 3.32 4.62 4 7 C3.01 7.33 2.02 7.66 1 8 C0.67 5.36 0.34 2.72 0 0 Z " fill="#285675" transform="translate(39,235)"/>
<path d="M0 0 C3.96 1.98 3.96 1.98 8 4 C8 4.33 8 4.66 8 5 C6.02 5 4.04 5 2 5 C2 4.34 2 3.68 2 3 C1.34 3 0.68 3 0 3 C0 2.01 0 1.02 0 0 Z " fill="#256297" transform="translate(98,136)"/>
<path d="M0 0 C-0.33 0.99 -0.66 1.98 -1 3 C-3.31 3.33 -5.62 3.66 -8 4 C-3.375 0 -3.375 0 0 0 Z " fill="#2E74AA" transform="translate(70,132)"/>
<path d="M0 0 C1.65 0 3.3 0 5 0 C5.33 0.99 5.66 1.98 6 3 C4.02 3 2.04 3 0 3 C0 2.01 0 1.02 0 0 Z " fill="#3D84A7" transform="translate(92,312)"/>
<path d="M0 0 C0.93423645 3.01031744 1.04449911 3.86650268 0 7 C-0.66 7 -1.32 7 -2 7 C-2.33 5.02 -2.66 3.04 -3 1 C-2.01 1.33 -1.02 1.66 0 2 C0 1.34 0 0.68 0 0 Z " fill="#1D69A0" transform="translate(35,230)"/>
<path d="M0 0 C2.64 0 5.28 0 8 0 C8 0.66 8 1.32 8 2 C4.94736336 2.98120464 3.05263664 2.98120464 0 2 C0 1.34 0 0.68 0 0 Z " fill="#2A2957" transform="translate(96,152)"/>
<path d="M0 0 C-0.6875 1.9375 -0.6875 1.9375 -2 4 C-4.625 4.75 -4.625 4.75 -7 5 C-2.25 0 -2.25 0 0 0 Z " fill="#3F6B98" transform="translate(58,136)"/>
</svg>
